<?xml version="1.0" standalone="no"?>
<!DOCTYPE svg PUBLIC "-//W3C//DTD SVG 20010904//EN"
 "http://www.w3.org/TR/2001/REC-SVG-20010904/DTD/svg10.dtd">
<svg version="1.0" xmlns="http://www.w3.org/2000/svg"
 width="612.000000pt" height="612.000000pt" viewBox="0 0 612.000000 612.000000"
 preserveAspectRatio="xMidYMid meet">
<metadata>
Created by potrace 1.11, written by Peter Selinger 2001-2013
</metadata>
<g transform="translate(0.000000,612.000000) scale(0.100000,-0.100000)"
fill="#000000" stroke="none">
<path d="M3218 5975 c-2 -1 -39 -5 -83 -9 -44 -4 -100 -9 -125 -11 -25 -2 -79
-7 -120 -10 -123 -9 -181 -24 -211 -55 -25 -24 -27 -32 -19 -59 5 -18 18 -40
29 -49 14 -12 22 -35 27 -77 3 -33 8 -63 10 -66 10 -18 -45 -37 -151 -54 -50
-7 -72 -11 -162 -28 -40 -8 -75 -12 -78 -9 -3 3 -5 15 -5 27 0 29 -63 73 -170
119 -113 48 -122 49 -215 26 -44 -11 -120 -28 -170 -39 -49 -11 -110 -27 -135
-36 -25 -9 -58 -19 -75 -22 -36 -6 -77 -26 -94 -47 -10 -12 -7 -26 19 -80 23
-46 33 -81 34 -118 l1 -53 -80 -28 c-143 -49 -165 -58 -225 -99 -115 -76 -150
-158 -204 -483 -9 -49 -18 -112 -21 -140 -3 -27 -7 -61 -10 -75 -2 -14 -7 -50
-10 -80 -4 -30 -8 -66 -10 -80 -4 -23 -8 -74 -20 -225 -3 -33 -7 -80 -10 -105
-5 -43 -8 -82 -20 -245 -3 -38 -7 -95 -10 -125 -2 -30 -7 -86 -11 -125 -5 -63
-9 -73 -37 -97 -17 -14 -35 -25 -38 -22 -4 2 -10 34 -14 71 -4 38 -8 77 -10
88 -2 11 -11 74 -20 140 -8 66 -17 134 -19 150 -2 17 -5 37 -5 47 -1 18 -62
58 -89 58 -9 0 -63 -21 -119 -47 l-104 -48 -39 -80 c-43 -88 -80 -193 -80
-225 0 -30 16 -57 76 -128 30 -35 55 -68 55 -73 1 -5 3 -13 4 -19 1 -5 3 -35
4 -65 1 -50 4 -56 31 -70 16 -9 46 -17 65 -18 30 -3 52 -21 161 -131 175 -179
174 -178 168 -301 -2 -55 -6 -120 -9 -145 -2 -25 -4 -113 -5 -196 l-1 -151
-44 -43 c-55 -54 -59 -88 -15 -146 36 -48 37 -68 5 -110 -34 -44 -32 -82 5
-122 16 -18 30 -36 30 -39 0 -3 -17 -28 -38 -56 -20 -29 -36 -54 -34 -57 2 -3
14 -24 28 -48 25 -42 25 -44 7 -57 -10 -8 -21 -15 -25 -15 -3 0 -16 -20 -28
-45 -39 -81 -32 -184 27 -405 12 -41 23 -94 26 -117 4 -22 8 -52 11 -65 3 -12
8 -41 11 -63 8 -57 35 -107 72 -131 27 -18 96 -39 199 -60 l22 -4 -23 -57
c-36 -88 -21 -159 42 -200 23 -15 53 -18 208 -19 99 -1 196 -4 215 -7 19 -3
62 -8 95 -12 33 -4 71 -9 85 -12 14 -2 97 -6 185 -8 201 -5 216 -8 261 -50 48
-45 83 -54 239 -59 145 -5 180 -9 310 -37 113 -24 132 -24 175 2 19 12 67 27
105 34 71 12 106 12 275 0 101 -8 127 -10 285 -22 174 -14 1040 -5 1120 12
146 29 324 119 403 203 154 165 198 264 167 379 -12 48 -12 49 32 135 28 55
61 102 89 128 38 35 60 74 140 244 97 208 116 273 95 323 -14 35 -19 91 -20
211 -1 50 -4 92 -9 92 -4 0 -6 -21 -3 -47 2 -27 -1 -44 -5 -40 -10 9 -11 14
-13 55 -1 15 -6 34 -11 42 -9 13 -11 13 -20 0 -25 -37 -46 -148 -49 -249 0
-30 -4 -51 -8 -48 -10 11 -12 304 -1 350 19 83 43 81 84 -8 13 -27 24 -44 24
-36 0 7 -15 46 -34 85 -25 51 -36 90 -40 141 -3 39 -8 84 -11 100 -13 80 -36
225 -41 265 -3 25 -7 56 -10 70 -2 14 -7 54 -10 88 -4 45 -19 91 -49 155 -23
51 -66 151 -95 222 -29 72 -83 198 -120 280 -95 212 -137 334 -120 345 8 5 15
28 16 52 1 24 2 48 3 53 0 6 16 18 34 28 17 10 42 32 54 50 24 36 60 161 69
239 3 29 7 58 9 65 2 6 -27 74 -66 150 -38 76 -75 154 -83 173 -13 34 -20 38
-123 72 -149 50 -235 63 -310 47 -31 -7 -32 -6 -77 82 -127 248 -251 441 -459
709 -49 63 -99 123 -111 133 -63 53 -198 98 -341 114 -75 8 -99 25 -129 90
-38 80 -123 155 -206 181 -34 11 -126 23 -132 17z m159 -97 c35 -22 76 -56 93
-75 28 -32 64 -102 57 -110 -4 -4 -59 -6 -97 -4 -21 1 -28 10 -43 49 -9 27
-36 74 -59 106 -39 51 -46 56 -73 51 -16 -2 -84 -7 -150 -10 -289 -13 -333
-28 -353 -120 l-9 -40 -12 42 c-6 23 -18 46 -26 50 -18 11 -8 26 30 45 34 17
79 26 175 33 133 9 216 16 270 24 86 12 129 3 197 -41z m-33 -142 c18 -44 14
-56 -17 -55 -25 2 -232 -24 -297 -37 -218 -41 -210 -41 -203 -15 3 11 19 35
36 53 70 74 75 76 202 93 66 8 145 21 175 28 52 12 56 11 71 -8 9 -11 24 -38
33 -59z m-1243 -75 c19 -11 59 -29 90 -41 48 -17 59 -26 74 -61 21 -46 15 -56
-38 -64 -30 -5 -38 -3 -43 12 -3 10 -17 41 -30 68 -31 67 -68 88 -153 89 l-66
0 40 12 c50 14 82 11 126 -15z m-215 -10 c-3 -4 -20 -11 -38 -15 -18 -3 -93
-25 -165 -48 -104 -33 -133 -45 -133 -59 0 -10 -4 -20 -9 -24 -13 -7 -35 35
-24 45 9 9 189 63 295 90 40 10 74 18 76 19 2 1 1 -3 -2 -8z m1796 -16 c110
-22 241 -69 290 -103 59 -41 100 -87 205 -227 173 -232 236 -337 423 -705 10
-19 21 -65 24 -102 4 -37 9 -75 11 -85 2 -10 16 -74 31 -143 24 -113 27 -147
28 -345 1 -121 5 -225 9 -232 7 -11 -38 -51 -47 -42 -8 8 -16 135 -21 319 -3
102 -8 196 -11 210 -3 14 -9 97 -14 185 -9 182 -22 237 -79 322 -21 32 -51 81
-66 108 -16 28 -67 106 -113 175 -47 69 -111 168 -144 220 -82 129 -108 146
-108 70 0 -21 9 -66 19 -101 21 -68 26 -99 37 -219 5 -64 21 -169 37 -245 3
-11 8 -40 13 -65 4 -25 8 -47 9 -50 0 -3 4 -26 8 -51 4 -25 10 -57 12 -70 4
-21 10 -81 30 -294 3 -27 7 -76 10 -108 5 -54 7 -75 21 -202 3 -27 7 -63 10
-78 4 -25 3 -27 -16 -17 -33 18 -44 51 -55 175 -11 119 -17 157 -40 285 -13
74 -26 149 -28 165 -7 44 -37 226 -42 252 -2 12 -9 57 -15 100 -7 43 -14 85
-15 93 -2 8 -4 25 -4 37 -1 18 -19 31 -96 68 -141 67 -218 86 -365 90 -69 2
-154 -1 -190 -5 -36 -4 -90 -11 -120 -14 -30 -4 -66 -8 -80 -11 -43 -7 -223
-34 -262 -40 -21 -3 -53 -7 -72 -10 -18 -2 -87 -16 -152 -30 -230 -50 -334
-59 -334 -30 0 19 26 32 80 40 48 7 208 33 250 41 14 2 41 7 60 9 62 9 104 15
130 20 14 2 43 7 65 10 22 3 78 12 125 20 179 29 299 40 435 39 175 -1 255
-17 389 -79 39 -18 84 -36 100 -40 l29 -6 -6 93 c-3 51 -8 104 -11 118 -17 81
-36 222 -31 230 8 13 -83 89 -145 120 -78 40 -168 67 -247 77 -118 13 -339 8
-453 -12 -14 -2 -90 -15 -170 -29 -80 -14 -170 -28 -200 -31 -30 -3 -77 -8
-105 -11 -71 -8 -87 -11 -210 -43 l-110 -29 1 -459 c2 -461 12 -1173 20 -1358
7 -172 5 -281 -5 -308 -6 -14 -22 -45 -37 -69 -27 -43 -28 -43 -35 -17 -3 14
-6 516 -5 1114 l1 1087 -85 -5 c-121 -9 -177 -21 -395 -88 -71 -22 -137 -42
-145 -44 -8 -2 -44 -11 -80 -20 -36 -9 -72 -18 -80 -20 -93 -18 -205 -65 -309
-128 -35 -21 -65 -36 -68 -33 -3 2 13 22 35 43 56 54 195 120 367 173 86 27
503 138 545 145 19 3 53 10 75 15 43 10 178 36 235 45 19 3 42 8 50 10 8 2 31
7 50 10 19 3 42 8 50 10 8 2 26 6 40 9 14 2 75 13 135 25 61 11 124 23 140 25
84 14 165 26 210 31 28 3 64 8 80 10 17 2 64 7 105 11 41 3 76 8 78 9 12 11
251 3 314 -10z m-1552 -96 c24 -46 12 -65 -45 -72 -22 -2 -96 -21 -165 -40
-165 -48 -283 -77 -289 -72 -10 11 35 89 65 112 32 24 185 78 319 113 79 20
85 18 115 -41z m1890 -346 c5 -21 13 -75 16 -121 l7 -82 -73 30 c-41 17 -76
32 -78 35 -2 2 11 23 31 47 19 24 44 62 56 86 12 23 23 42 26 42 2 0 9 -17 15
-37z m249 -246 c31 -44 62 -87 69 -97 19 -26 -4 -58 -66 -92 l-49 -28 -8 58
c-4 31 -9 66 -11 77 -2 11 -6 43 -10 70 -3 28 -7 65 -9 83 -4 30 -3 32 12 20
9 -7 41 -48 72 -91z m-3103 26 c-3 -16 -7 -44 -10 -63 -9 -58 -35 -214 -40
-235 -8 -38 -25 -70 -56 -105 l-30 -35 14 40 c8 22 17 63 21 90 23 171 70 335
96 335 5 0 7 -12 5 -27z m2599 -57 c109 -12 220 -56 273 -107 32 -32 38 -51
46 -154 3 -33 12 -96 21 -140 29 -149 30 -142 -20 -149 -62 -10 -103 -42 -148
-117 -44 -74 -95 -113 -217 -166 -77 -33 -197 -67 -273 -78 -23 -3 -58 -10
-77 -15 -19 -5 -64 -12 -100 -15 -36 -4 -72 -9 -81 -10 -9 -2 -52 -6 -95 -10
-43 -4 -87 -9 -97 -11 -10 -2 -48 -6 -85 -9 -37 -3 -74 -8 -82 -10 -8 -2 -46
-7 -84 -11 -38 -3 -82 -10 -98 -14 -38 -12 -37 2 12 99 77 153 403 507 672
730 102 84 141 110 208 137 45 18 87 38 94 43 12 10 54 19 71 14 6 -1 33 -4
60 -7z m-1465 -43 l0 -28 -138 -23 c-75 -13 -141 -24 -147 -26 -5 -1 -26 -6
-45 -10 -19 -4 -64 -14 -99 -23 -36 -8 -72 -16 -80 -18 -29 -6 -286 -66 -301
-70 -8 -2 -80 -18 -158 -35 -163 -34 -175 -39 -219 -89 -35 -38 -44 -28 -16
17 42 64 86 85 248 117 66 14 129 26 140 29 11 2 67 16 125 30 58 13 116 27
130 29 14 3 52 12 85 20 33 8 94 22 135 31 41 9 131 30 200 46 69 15 128 29
133 29 4 1 7 -11 7 -26z m340 -170 c0 -53 -77 -155 -186 -246 l-21 -17 -1 138
c0 137 0 139 21 135 12 -2 46 0 76 4 95 14 111 12 111 -14z m-339 -194 c1
-181 -8 -253 -40 -298 -26 -38 -74 -131 -130 -254 -74 -160 -76 -162 -168
-176 -105 -17 -118 -18 -193 -26 -36 -4 -78 -9 -95 -10 -63 -7 -153 -15 -225
-20 -41 -3 -101 -8 -132 -10 -52 -3 -58 -2 -58 15 0 33 108 219 192 329 73 98
213 246 277 295 70 54 381 255 441 286 41 21 122 50 127 46 2 -1 3 -81 4 -177z
m2574 75 c50 -8 113 -25 140 -38 48 -22 53 -28 101 -122 90 -177 100 -244 59
-403 -20 -76 -31 -96 -62 -110 -22 -10 -23 -9 -23 25 0 44 -25 88 -57 103 -71
32 -143 -5 -143 -74 0 -20 -4 -34 -8 -31 -4 2 -27 7 -51 10 -24 2 -48 9 -53
14 -22 22 -116 503 -114 587 1 70 12 72 211 39z m-3801 -189 c-1 -33 -4 -112
-8 -175 -7 -115 -9 -167 -21 -551 -3 -113 -8 -214 -10 -225 -2 -10 -4 -23 -4
-27 -1 -5 -18 -6 -38 -3 -21 3 -39 5 -41 6 -3 0 6 195 13 260 1 19 6 80 10
135 3 55 8 111 10 125 2 14 6 66 10 115 3 50 8 108 10 130 2 22 7 72 11 110 3
39 7 84 9 100 1 17 3 38 4 48 1 13 8 17 24 15 20 -3 22 -8 21 -63z m3915 -504
c2 -118 -6 -148 -32 -122 -12 12 -12 13 -22 127 -7 75 -6 83 14 103 12 12 26
19 30 16 5 -2 9 -58 10 -124z m-4305 -7 c23 -9 20 -33 -3 -27 -25 6 -28 -1
-41 -83 -5 -38 -17 -88 -26 -111 l-16 -43 43 -77 c23 -43 60 -106 82 -141 45
-72 45 -104 0 -119 -16 -5 -34 -8 -40 -7 -7 1 -20 2 -28 3 -25 2 -17 19 19 44
l35 23 -40 73 c-71 131 -127 210 -152 216 -17 5 -42 -3 -81 -25 l-57 -32 25
66 c47 124 68 156 137 207 46 35 103 48 143 33z m3606 -184 c-14 -3 -108 -33
-210 -67 -102 -34 -228 -71 -280 -83 -123 -27 -107 -24 -240 -59 -63 -16 -274
-78 -469 -136 -562 -168 -711 -209 -711 -193 0 5 11 26 25 46 14 20 25 44 25
53 0 12 16 19 63 29 110 21 1105 269 1327 330 118 33 246 64 285 70 38 6 74
15 80 19 5 4 26 8 44 10 19 1 37 4 39 6 3 2 14 -1 26 -7 21 -12 21 -12 -4 -18z
m531 12 c-5 -9 -33 -40 -63 -68 -29 -28 -76 -77 -104 -108 -50 -54 -68 -57
-55 -9 3 12 40 48 81 80 41 31 91 72 110 90 40 38 44 40 31 15z m219 -75 c51
-107 189 -399 200 -422 5 -11 52 -118 105 -237 78 -179 95 -226 95 -267 0 -27
-4 -52 -9 -55 -9 -6 -16 15 -27 89 -3 22 -31 99 -61 170 -59 141 -281 589
-345 697 -40 68 -44 98 -11 98 12 0 29 -23 53 -73z m-18 -150 c46 -92 27 -76
-25 21 -26 48 -37 76 -26 62 12 -14 35 -51 51 -83z m-587 -21 c44 -45 146
-142 225 -216 158 -149 164 -155 364 -343 77 -73 174 -164 215 -203 42 -40
107 -97 144 -129 38 -32 72 -68 77 -80 5 -12 11 -59 15 -104 4 -46 8 -92 11
-104 22 -115 23 -155 6 -197 -36 -90 -39 -134 -27 -402 8 -166 7 -168 -16
-203 -24 -34 -43 -47 -34 -22 9 24 11 441 3 501 -11 82 -39 134 -106 201 -101
100 -174 109 -217 24 -25 -48 -54 -173 -62 -267 -7 -89 -9 -374 -4 -582 4
-164 4 -166 -28 -202 -16 -18 -31 -31 -34 -28 -3 3 -8 37 -11 75 -4 39 -9 81
-11 95 -6 41 -14 120 -20 205 -4 44 -9 87 -11 96 -6 21 -47 38 -94 40 -61 3
-72 8 -66 35 9 33 -15 84 -54 116 -36 30 -37 27 9 107 24 41 15 65 -40 103
-47 33 -50 56 -14 134 41 91 36 108 -60 183 l-66 52 -697 -1 c-705 -1 -1129
-6 -1325 -14 l-107 -5 2 282 3 281 75 29 c92 34 141 52 760 270 272 96 569
202 660 237 288 110 388 140 423 127 17 -5 67 -47 112 -91z m358 -78 c8 -13
39 -50 68 -84 113 -127 179 -202 249 -284 39 -47 84 -98 99 -115 35 -38 65
-84 59 -90 -5 -5 -344 337 -427 430 -24 28 -60 66 -79 86 -29 32 -32 40 -23
58 15 27 35 27 54 -1z m-3720 -23 c48 -3 96 -8 105 -9 15 -3 98 -13 182 -21
31 -3 126 -15 160 -20 14 -2 45 -6 70 -9 25 -3 131 -17 235 -32 105 -14 206
-28 225 -30 19 -3 45 -6 56 -8 12 -3 48 -8 80 -11 75 -10 104 -21 104 -40 0
-8 5 -15 10 -15 6 0 10 -7 10 -15 0 -13 -8 -15 -37 -10 -21 3 -59 7 -84 10
-69 6 -142 16 -159 20 -8 2 -34 7 -57 10 -23 3 -55 8 -70 10 -38 6 -142 24
-173 30 -14 3 -37 7 -52 10 -15 3 -72 14 -125 24 -54 11 -109 22 -123 24 -14
3 -86 17 -160 31 -74 14 -148 28 -165 31 -16 3 -52 8 -78 12 -26 3 -50 10 -54
16 -3 6 -2 8 3 5 5 -3 49 -9 97 -13z m-187 -134 c8 -18 13 -35 10 -38 -2 -3
-24 10 -48 29 -39 30 -43 36 -40 72 l3 39 30 -34 c17 -19 37 -49 45 -68z
m-287 46 c5 -15 84 -93 175 -172 131 -114 146 -128 146 -142 0 -20 -56 20
-158 114 -47 43 -108 95 -136 116 -28 21 -51 43 -51 50 0 13 -15 13 -52 1 -19
-5 -23 -2 -23 13 0 36 88 53 99 20z m511 -49 c47 -11 94 -21 105 -24 11 -2 85
-22 165 -44 207 -58 581 -160 605 -164 11 -3 81 -21 155 -40 74 -20 155 -41
180 -48 25 -6 47 -13 49 -14 2 -2 6 -130 8 -284 l4 -280 -103 -1 c-135 -1
-282 -6 -448 -14 -74 -4 -157 -9 -185 -10 -45 -2 -195 -12 -315 -21 -25 -1
-92 -6 -150 -10 -163 -12 -227 -11 -242 4 -10 10 -12 57 -10 200 2 103 5 216
7 252 14 230 19 347 18 433 l0 97 36 -6 c20 -3 74 -15 121 -26z m3085 -909
c335 -2 336 -2 389 -58 l30 -31 -275 0 c-330 0 -1019 -9 -1179 -15 -63 -2
-230 -7 -370 -9 -702 -14 -813 -17 -915 -21 -241 -10 -362 -16 -395 -20 -19
-2 -80 -7 -135 -10 -55 -4 -116 -9 -135 -11 -19 -2 -110 -7 -202 -10 -125 -5
-168 -4 -168 5 0 17 90 100 109 99 16 0 125 8 211 17 141 14 307 25 620 41
183 9 247 11 655 19 204 4 371 8 372 8 2 2 971 0 1388 -4z m1037 -120 c48 -26
133 -135 148 -188 5 -20 12 -79 14 -131 l5 -95 -14 65 c-38 172 -89 230 -130
149 -19 -36 -41 -143 -51 -239 -10 -113 -11 -559 0 -607 6 -26 6 -51 0 -63 -9
-20 -9 -20 -42 0 -84 51 -94 112 -89 550 4 355 6 377 32 465 27 93 70 125 127
94z m-642 -157 c0 -15 7 -38 16 -50 9 -13 14 -25 12 -27 -15 -15 -481 -31
-1208 -40 -1786 -23 -2532 -25 -2537 -9 -8 25 51 52 127 58 182 14 487 27 920
40 497 16 597 18 1360 31 390 7 794 16 796 18 2 1 118 3 258 4 l256 2 0 -27z
m17 -271 c30 -1 81 -46 68 -60 -38 -39 -297 -49 -1655 -67 -970 -12 -1683 -6
-2130 20 -39 2 -42 18 -10 50 18 18 52 19 1082 22 585 1 1182 5 1328 8 146 3
384 8 530 10 284 5 703 17 708 21 1 1 15 1 30 -1 15 -1 37 -2 49 -3z m253
-206 c17 -11 30 -81 36 -201 4 -100 18 -214 40 -334 3 -14 7 -55 11 -92 6 -65
5 -67 -33 -119 -29 -40 -52 -58 -98 -79 -157 -71 -313 -94 -686 -105 -102 -3
-250 -8 -330 -11 -213 -10 -517 -9 -660 1 -222 16 -259 13 -310 -18 -25 -15
-62 -42 -84 -60 l-38 -32 -187 2 c-291 4 -296 6 -309 102 -5 33 -12 64 -16 69
-4 4 -58 6 -119 6 -292 -4 -527 -3 -577 1 -30 2 -86 7 -125 10 -38 4 -79 8
-90 10 -11 3 -36 7 -55 9 -66 10 -145 26 -223 47 -58 16 -82 28 -94 46 -14 20
-49 158 -68 263 -3 14 -9 47 -14 74 -5 28 -8 76 -8 108 3 111 18 114 497 123
389 7 591 16 665 30 11 2 29 4 39 4 15 1 17 4 9 12 -8 8 -87 13 -250 14 -260
3 -683 14 -750 20 -52 5 -113 21 -133 36 -11 8 -8 9 15 3 17 -5 136 -9 265
-10 129 0 377 -5 550 -9 409 -11 1139 -11 1450 -1 135 4 326 9 425 11 99 2
227 6 285 9 58 4 193 9 300 11 107 3 218 7 245 10 198 17 269 28 299 48 19 13
101 8 126 -8z m241 -464 c16 -16 29 -36 29 -45 0 -14 -58 -66 -74 -66 -4 0
-19 -13 -33 -30 -13 -16 -28 -30 -33 -30 -4 0 -8 28 -9 63 -1 59 2 66 34 100
19 20 40 37 46 37 6 0 24 -13 40 -29z"/>
<path d="M4740 4552 c0 -34 59 -150 94 -185 23 -23 49 -37 87 -45 73 -17 163
-29 176 -25 12 4 7 61 -7 78 -22 27 -60 106 -60 124 0 25 -19 38 -30 21 -12
-20 -2 -56 31 -116 17 -29 29 -58 27 -62 -4 -10 -127 13 -174 33 -25 10 -39
29 -66 86 -20 41 -45 83 -57 93 -21 19 -21 19 -21 -2z"/>
<path d="M4852 4238 c-50 -112 -68 -203 -49 -245 14 -31 33 -29 51 5 31 60 96
99 177 105 51 4 56 3 86 -29 17 -19 34 -34 36 -34 11 0 24 59 26 117 2 61 2
62 -26 69 -15 3 -35 8 -43 10 -8 2 -33 6 -55 9 -50 7 -144 25 -167 31 -12 4
-22 -7 -36 -38z"/>
<path d="M4075 3395 c-110 -37 -115 -43 -100 -122 6 -32 8 -34 35 -28 31 7 27
20 46 -165 3 -30 7 -66 9 -80 2 -14 6 -56 10 -95 3 -38 8 -86 10 -105 8 -73
14 -127 20 -185 11 -111 17 -160 21 -166 2 -3 20 -5 41 -3 21 1 46 3 55 3 14
1 17 8 13 34 -6 47 -14 113 -20 182 -3 33 -8 71 -10 85 -2 14 -7 57 -11 95 -3
39 -8 79 -10 90 -2 11 -6 53 -10 93 -3 40 -7 83 -10 95 -2 12 -7 54 -10 93
l-6 72 30 7 c21 4 29 11 26 23 -1 9 -6 38 -9 65 -3 26 -9 47 -13 46 -4 0 -52
-16 -107 -34z"/>
<path d="M3883 3334 c-30 -11 -41 -20 -38 -32 1 -9 6 -55 10 -102 3 -47 8 -92
10 -100 2 -8 7 -55 10 -104 4 -49 8 -101 10 -115 2 -14 6 -60 10 -101 3 -41 8
-86 10 -100 2 -14 7 -63 11 -110 4 -47 8 -94 9 -105 1 -17 10 -20 59 -23 l58
-3 -7 83 c-4 46 -9 97 -11 113 -2 17 -6 57 -9 90 -5 61 -13 132 -20 195 -2 19
-7 67 -10 105 -4 39 -8 81 -10 95 -2 14 -7 59 -11 100 -6 72 -10 107 -13 123
-2 10 -20 8 -68 -9z"/>
<path d="M4446 3325 c-35 -32 -47 -67 -47 -137 -1 -102 50 -232 108 -278 35
-28 43 -25 43 14 0 78 41 126 108 126 24 0 71 -25 92 -50 3 -3 30 -20 61 -37
52 -29 217 -147 319 -227 24 -19 46 -33 49 -31 8 8 -400 417 -460 461 -19 13
-67 60 -109 104 -85 91 -115 101 -164 55z"/>
<path d="M3708 3283 c-39 -6 -94 -61 -106 -105 -10 -36 -8 -142 3 -211 3 -17
23 -57 45 -87 114 -160 111 -154 122 -235 7 -55 7 -80 -1 -88 -20 -20 -29 5
-37 93 -4 47 -7 91 -7 98 0 16 -23 18 -77 7 -8 -2 -19 -4 -23 -4 -4 -1 -5 -20
-3 -43 3 -24 8 -76 11 -117 7 -83 23 -123 61 -148 30 -19 109 -22 143 -4 29
16 59 83 56 124 -2 18 -6 68 -10 112 -8 96 -29 147 -99 240 -71 94 -76 105
-83 180 -5 56 -4 65 11 65 11 0 16 -9 17 -27 2 -61 10 -137 14 -141 7 -7 105
19 101 27 -3 4 -7 40 -10 80 -8 109 -16 138 -43 166 -25 25 -32 26 -85 18z"/>
<path d="M3512 3213 l-44 -15 6 -52 c3 -28 8 -89 11 -135 3 -47 8 -88 11 -93
3 -4 0 -8 -5 -8 -6 0 -11 2 -11 6 0 14 -64 250 -69 255 -3 4 -31 -1 -61 -10
l-55 -17 2 -74 c1 -70 7 -177 17 -310 3 -30 7 -109 11 -175 11 -188 5 -170 56
-169 l44 1 0 69 c-1 38 -4 119 -7 179 l-7 110 48 -175 48 -175 60 0 c58 0 60
0 57 25 -2 14 -6 72 -9 129 -4 56 -8 111 -10 120 -2 9 -6 61 -10 116 -4 55 -8
111 -10 125 -2 14 -7 68 -10 120 -10 137 -12 161 -16 164 -2 2 -23 -3 -47 -11z"/>
<path d="M3121 3089 c-30 -10 -56 -20 -58 -23 -6 -6 -11 -44 -18 -151 -4 -55
-8 -116 -10 -135 -2 -19 -7 -82 -10 -140 -4 -58 -9 -112 -10 -120 -2 -8 -4
-36 -4 -62 -1 -50 -14 -64 -25 -25 -3 12 -9 69 -12 127 -6 117 -16 153 -45
166 -20 9 -20 10 6 39 25 28 26 35 23 117 -4 129 -34 147 -168 104 l-75 -24 0
-259 c0 -339 -5 -314 59 -309 28 3 53 5 56 5 3 1 4 64 2 141 -2 90 0 140 7
140 17 0 20 -14 22 -111 3 -101 15 -182 28 -175 4 3 54 6 110 8 56 1 107 5
112 8 8 5 16 70 18 153 1 22 6 27 26 27 15 0 26 -6 26 -15 1 -8 2 -18 3 -22 6
-24 19 -129 18 -136 -1 -4 24 -7 55 -5 51 3 58 6 57 23 -1 27 -11 89 -23 150
-6 28 -13 66 -16 85 -2 19 -7 46 -10 60 -3 14 -7 36 -10 50 -3 14 -17 94 -32
178 -15 83 -32 151 -38 151 -5 -1 -34 -10 -64 -20z m-270 -225 c1 -24 2 -50 3
-56 3 -17 -12 -48 -23 -48 -4 0 -8 36 -9 80 -2 67 0 78 13 74 10 -4 15 -21 16
-50z m303 -106 c5 -55 4 -68 -7 -68 -10 0 -14 12 -12 43 2 23 3 55 4 71 2 46
8 27 15 -46z"/>
<path d="M2563 2917 c-105 -31 -115 -40 -105 -89 3 -14 8 -15 28 -8 14 6 27
10 29 10 3 0 4 -44 4 -97 -1 -54 -1 -155 0 -225 1 -114 3 -126 19 -123 9 2 35
4 57 4 l41 1 -4 235 -4 235 29 6 c26 5 29 10 32 45 2 47 7 46 -126 6z"/>
<path d="M1049 3073 c0 -32 -2 -89 -4 -128 -1 -38 -5 -144 -9 -235 -4 -91 -9
-215 -12 -275 l-5 -110 45 3 46 4 1 82 c1 44 3 115 4 156 2 41 4 90 4 109 1
53 9 32 16 -41 3 -37 7 -75 9 -85 2 -10 7 -51 11 -90 4 -40 8 -81 10 -90 2
-10 4 -23 4 -29 1 -7 17 -11 39 -10 l37 2 12 65 c6 35 15 84 18 109 4 25 13
77 20 115 13 67 13 63 9 -107 l-4 -178 44 0 c25 0 47 4 50 9 6 9 17 333 19
560 l2 145 -50 13 c-88 23 -88 22 -101 -71 -16 -127 -42 -268 -44 -241 -1 17
-3 41 -5 55 -1 14 -6 68 -10 120 -4 52 -8 106 -10 120 -2 14 -3 32 -4 40 -1
11 -19 20 -59 28 -85 17 -82 19 -83 -45z"/>
<path d="M1509 3008 c0 -13 -2 -32 -4 -43 -2 -11 -7 -42 -10 -69 -4 -27 -8
-56 -10 -65 -3 -15 -13 -79 -20 -131 -2 -14 -7 -47 -11 -75 -3 -27 -8 -59 -10
-70 -2 -11 -7 -40 -10 -65 -3 -25 -10 -65 -14 -90 -5 -25 -6 -47 -4 -49 6 -6
96 -2 103 4 3 3 6 13 8 23 7 44 12 90 12 120 1 27 5 32 26 32 14 0 25 -6 25
-12 1 -24 11 -123 15 -143 3 -16 11 -20 32 -19 15 1 41 3 56 3 16 1 26 4 24 9
-3 4 -8 41 -11 82 -4 41 -9 89 -11 105 -4 30 -14 130 -21 215 -2 25 -5 63 -8
85 -3 22 -8 66 -12 98 -3 32 -8 56 -11 54 -2 -3 -28 1 -56 9 -70 18 -77 18
-78 -8z m70 -382 c-13 -15 -21 19 -15 61 3 21 6 47 7 58 1 11 5 -9 9 -45 4
-36 3 -69 -1 -74z"/>
<path d="M1772 2945 c-25 -21 -27 -31 -30 -107 l-4 -84 54 -78 c77 -113 78
-116 76 -171 -2 -37 -7 -50 -18 -50 -12 0 -15 15 -16 75 l0 75 -50 3 -50 3 -2
-84 c-2 -46 2 -96 8 -111 20 -53 116 -69 189 -31 38 19 54 69 49 154 -3 65 -6
71 -66 151 -34 46 -62 91 -63 99 -1 9 -2 28 -3 43 -2 15 1 33 6 40 14 23 26
-11 23 -67 l-3 -53 46 -6 c25 -3 48 -4 51 0 3 3 5 34 5 69 -1 96 -37 137 -132
148 -36 4 -49 0 -70 -18z"/>
<path d="M2043 2898 c-30 -14 -43 -53 -39 -118 3 -62 13 -86 62 -140 39 -43
34 -52 -25 -46 l-41 4 0 -80 c0 -44 5 -88 10 -99 29 -54 163 -55 211 -1 24 26
26 37 24 93 -1 35 -3 67 -4 71 0 4 -30 42 -66 85 -58 69 -65 82 -65 121 0 64
24 49 30 -19 l5 -54 49 -3 49 -4 -5 59 c-3 33 -10 69 -16 80 -22 40 -135 73
-179 51z m95 -385 c0 -40 -14 -67 -29 -57 -5 3 -9 35 -9 72 1 67 1 67 19 45
11 -13 19 -38 19 -60z"/>
<path d="M4780 1512 c0 -20 -125 -44 -290 -57 -41 -3 -100 -8 -130 -10 -30 -3
-102 -8 -160 -11 -169 -9 -210 -16 -210 -34 0 -13 29 -19 100 -19 36 -1 76 -3
90 -5 14 -3 61 -7 104 -11 43 -4 88 -8 98 -10 11 -2 46 -7 79 -10 33 -4 74
-12 92 -19 48 -19 77 -10 77 23 0 28 34 65 83 90 55 28 110 81 84 81 -9 0 -17
-4 -17 -8z"/>
<path d="M4789 1338 c-2 -37 -2 -68 3 -161 8 -147 -34 -234 -162 -332 -36 -28
-84 -53 -123 -65 -36 -11 -76 -29 -89 -40 l-23 -19 73 4 c40 2 86 6 103 10 17
4 40 8 52 10 12 1 38 6 57 9 19 4 56 8 81 10 49 2 109 33 134 69 19 27 19 73
0 128 -20 54 -32 109 -39 172 -3 26 -8 68 -12 95 -9 78 -25 132 -40 132 -8 0
-15 -10 -15 -22z"/>
<path d="M914 1328 c-17 -4 -37 -14 -43 -22 -15 -18 -21 -81 -11 -115 4 -14
18 -60 30 -101 50 -171 62 -201 86 -216 42 -28 48 -6 18 71 -5 13 0 11 16 -9
52 -63 195 -97 260 -62 21 12 28 12 50 -3 50 -35 95 -46 180 -46 69 0 93 5
127 23 23 12 47 31 53 42 15 28 29 25 36 -7 12 -54 15 -63 26 -63 18 0 1 73
-48 208 -47 128 -49 137 -62 206 -9 47 -23 53 -147 60 -231 15 -280 18 -298
22 -110 21 -222 26 -273 12z m170 -38 c17 -7 18 -9 3 -9 -37 -2 -100 -54 -113
-95 -7 -20 -8 -20 -15 4 -4 14 -7 44 -8 67 l-1 42 56 0 c31 0 66 -4 78 -9z
m210 -31 c-8 -13 -21 -11 -27 5 -4 10 0 12 14 9 10 -3 16 -9 13 -14z m-38 -37
c26 -33 49 -34 59 -1 4 10 21 23 38 27 45 12 230 4 238 -10 4 -7 15 -40 23
-75 9 -35 27 -87 40 -115 30 -65 26 -104 -13 -140 -61 -55 -199 -63 -280 -17
-23 12 -41 25 -41 28 0 3 -4 13 -10 21 -7 12 -16 9 -50 -19 -38 -30 -47 -33
-91 -29 -62 6 -113 44 -152 114 -24 42 -27 58 -24 112 3 54 7 67 34 93 36 37
78 49 151 45 47 -2 57 -7 78 -34z"/>
<path d="M1093 1222 c-51 -5 -77 -49 -70 -118 7 -72 50 -160 87 -179 100 -52
206 58 166 172 -6 18 -28 52 -48 76 -39 46 -64 56 -135 49z m99 -74 c61 -66
68 -125 21 -173 -32 -31 -73 -32 -99 -4 l-19 21 32 -6 c36 -8 73 7 73 29 0 15
-7 18 -41 18 -8 0 -26 19 -39 43 -12 24 -29 44 -36 44 -25 0 -27 23 -4 42 35
28 76 23 112 -14z"/>
<path d="M1390 1217 c-68 -23 -92 -114 -59 -216 26 -79 64 -109 135 -106 84 3
132 44 140 120 8 80 -60 184 -134 204 -44 13 -38 13 -82 -2z m131 -76 c45 -51
59 -95 44 -141 -30 -88 -143 -98 -187 -16 -16 29 -28 76 -19 76 4 0 11 -14 16
-32 13 -42 54 -70 104 -72 69 -1 78 40 10 50 -19 3 -38 12 -44 21 -5 9 -23 31
-39 50 l-29 35 -14 -24 c-12 -21 -12 -19 -6 22 9 64 32 82 93 75 25 -3 45 -15
71 -44z"/>
<path d="M2541 1266 c-17 -20 -10 -28 26 -32 16 -2 51 -5 78 -8 28 -4 75 -9
105 -12 319 -33 476 -107 550 -259 l30 -60 -5 65 c-8 115 -38 206 -87 262 -29
34 -50 37 -363 42 -126 3 -250 8 -275 11 -36 6 -49 4 -59 -9z"/>
<path d="M3337 1242 c-9 -2 -17 -5 -17 -7 0 -3 30 -94 66 -204 52 -160 71
-207 95 -231 36 -35 64 -40 56 -10 -6 24 0 25 44 6 77 -32 188 -25 223 13 16
18 19 17 79 -7 121 -49 261 -27 313 49 l22 30 6 -34 c3 -18 12 -42 20 -52 13
-18 14 -17 21 13 5 25 -5 67 -45 184 -77 231 -78 234 -104 246 -21 9 -731 13
-779 4z m231 -37 c2 -2 -11 -11 -30 -20 -18 -10 -43 -26 -54 -37 l-21 -19 -10
40 c-6 22 -9 42 -6 44 4 5 115 -3 121 -8z m230 -10 c1 -1 -6 -12 -15 -24 l-18
-22 -27 20 c-14 12 -32 21 -40 21 -11 0 -10 2 1 9 11 7 89 4 99 -4z m293 10
c12 -4 24 -26 35 -63 8 -31 26 -90 39 -131 22 -65 23 -76 11 -100 -24 -45 -76
-90 -112 -97 -60 -11 -214 25 -214 50 0 8 -6 18 -13 24 -10 8 -19 3 -40 -23
-49 -62 -131 -68 -233 -20 -44 22 -53 31 -63 67 -7 24 -17 48 -23 55 -5 6 -9
30 -10 52 -1 54 32 105 86 130 73 36 139 24 189 -32 22 -25 29 -29 34 -17 12
31 76 80 119 93 48 14 166 21 195 12z"/>
<path d="M3920 1160 c-84 -23 -118 -84 -111 -197 1 -27 44 -79 80 -98 70 -36
170 -25 214 24 46 51 52 90 23 161 -8 19 -17 43 -20 52 -12 38 -128 74 -186
58z m130 -64 c66 -44 75 -138 18 -193 -76 -72 -218 -5 -220 105 0 51 29 104
62 112 43 11 103 1 140 -24z"/>
<path d="M3870 989 c0 -29 54 -77 95 -85 39 -7 84 5 98 28 8 11 5 21 -10 37
-17 19 -21 19 -39 6 -27 -20 -41 -19 -78 10 -41 31 -66 32 -66 4z"/>
<path d="M3553 1126 c-72 -60 -61 -209 19 -269 32 -24 73 -24 134 -1 54 20 76
56 77 123 1 96 -56 161 -148 169 -44 4 -55 1 -82 -22z m124 -29 c72 -41 95
-154 38 -191 -22 -15 -24 -15 -18 0 5 12 0 15 -23 13 -16 -1 -41 3 -55 9 -32
13 -82 97 -73 124 16 50 81 73 131 45z m-84 -188 c23 -23 26 -30 12 -28 -27 6
-55 49 -60 94 l-5 40 11 -38 c6 -21 25 -51 42 -68z"/>
<path d="M2256 1190 c-2 -8 -10 -33 -17 -55 -42 -139 -141 -248 -287 -318 -47
-22 -61 -32 -52 -41 17 -17 146 -16 225 1 39 8 75 16 81 17 65 12 125 222 95
331 -14 52 -37 86 -45 65z"/>
<path d="M2590 762 c0 -34 85 -202 103 -202 4 0 25 18 47 40 41 41 51 70 25
70 -24 0 -87 36 -122 69 -31 30 -53 39 -53 23z"/>
</g>
</svg>
