<svg version="1.1" xmlns="http://www.w3.org/2000/svg" xmlns:xlink="http://www.w3.org/1999/xlink" width="981" height="1437"><defs/><g><g/><g/><g/><g/><g/><g/><g/><g/><g/><g/><g/><g/><g/><g/><g/><g><rect fill="white" stroke="none" x="0" y="0" width="981" height="1437"/></g><g><text fill="black" stroke="none" font-family="sans-serif" font-size="16.5pt" font-style="normal" font-weight="normal" text-decoration="normal" x="391.332304232502" y="39.58145414999999" text-anchor="start" dominant-baseline="alphabetic" xml:space="preserve">Request / Response</text></g><g/><g><path fill="none" stroke="black" paint-order="fill stroke markers" d=" M 135.05396127515627 208.19844882900003 L 135.05396127515627 1437.8622910889999" stroke-miterlimit="10" stroke-width="2.1989696750000003" stroke-dasharray="20.298181615384618,8.795878700000001"/><path fill="none" stroke="black" paint-order="fill stroke markers" d=" M 335.1615322485938 208.19844882900003 L 335.1615322485938 1437.8622910889999" stroke-miterlimit="10" stroke-width="2.1989696750000003" stroke-dasharray="20.298181615384618,8.795878700000001"/><path fill="none" stroke="black" paint-order="fill stroke markers" d=" M 493.47334389336334 208.19844882900003 L 493.47334389336334 1437.8622910889999" stroke-miterlimit="10" stroke-width="2.1989696750000003" stroke-dasharray="20.298181615384618,8.795878700000001"/><path fill="none" stroke="black" paint-order="fill stroke markers" d=" M 625.4115243933634 208.19844882900003 L 625.4115243933634 1437.8622910889999" stroke-miterlimit="10" stroke-width="2.1989696750000003" stroke-dasharray="20.298181615384618,8.795878700000001"/><path fill="none" stroke="black" paint-order="fill stroke markers" d=" M 831.2073421361368 208.19844882900003 L 831.2073421361368 1437.8622910889999" stroke-miterlimit="10" stroke-width="2.1989696750000003" stroke-dasharray="20.298181615384618,8.795878700000001"/></g><g><g><path fill="blue" stroke="black" paint-order="fill stroke markers" d=" M 150.09491385215628 96.57874812600004 A 15.040952577 15.040952577 0 1 1 150.09490633168062 96.56370717592985 M 135.05396127515627 111.61970070300003 L 135.05396127515627 143.81261674500004 M 116.05486328315627 123.23026058700003 L 154.05305926715627 123.23026058700003 M 135.05396127515627 143.81261674500004 L 116.05486328315627 173.89452189900004 M 135.05396127515627 143.81261674500004 L 154.05305926715627 173.89452189900004" stroke-miterlimit="10" stroke-width="4.485898137" stroke-dasharray=""/></g><g><g/><text fill="black" stroke="none" font-family="sans-serif" font-size="11pt" font-style="normal" font-weight="normal" text-decoration="normal" x="108.35812997632814" y="200.28215799900002" text-anchor="start" dominant-baseline="alphabetic" xml:space="preserve">Client A</text></g><path fill="none" stroke="none"/><g><path fill="white" stroke="black" paint-order="fill stroke markers" d=" M 256.0126289038243 136.951831359 L 414.31043559336337 136.951831359 L 414.31043559336337 208.19844882900003 L 256.0126289038243 208.19844882900003 L 256.0126289038243 136.951831359 Z" stroke-miterlimit="10" stroke-width="4.222021776" stroke-dasharray=""/></g><g><g/><text fill="black" stroke="none" font-family="sans-serif" font-size="11pt" font-style="normal" font-weight="normal" text-decoration="normal" x="284.64321407232427" y="181.81081272900002" text-anchor="start" dominant-baseline="alphabetic" xml:space="preserve">HTTP Endpoint</text></g><g><path fill="white" stroke="black" paint-order="fill stroke markers" d=" M 454.9473951873633 156.47868207300004 L 454.9473951873633 101.06464626300004 L 531.9992925993633 101.06464626300004 L 531.9992925993633 156.47868207300004" stroke-miterlimit="10" stroke-width="4.485898137" stroke-dasharray=""/><path fill="white" stroke="black" paint-order="fill stroke markers" d=" M 531.9992925993633 99.13834882770004 L 531.9973663179804 99.31250432333458 L 531.9915876664584 99.48664240356469 L 531.9819572226575 99.66074565472746 L 531.9684759496139 99.83479666664284 L 531.9511451954439 100.00877803435472 L 531.9299666932085 100.18267235987128 L 531.9049425607402 100.35646225390488 L 531.8760753004314 100.53013033761096 L 531.843367798984 100.70365924432586 L 531.8068233271209 100.87703162130353 L 531.7664455392589 101.05023013145072 L 531.7222384731432 101.22323745506077 L 531.6742065494435 101.39603629154549 L 531.6223545713121 101.56860936116522 L 531.5666877239037 101.74093940675681 L 531.5072115738565 101.91300919545932 L 531.443932068736 102.08480152043727 L 531.3768555364401 102.2562992026013 L 531.305988684566 102.42748509232614 L 531.23133859974 102.59834207116543 L 531.1529127469081 102.76885305356372 L 531.0707189685904 102.93900098856481 L 530.9847654840963 103.10876886151704 L 530.8950608887026 103.27813969577454 L 530.8016141527938 103.44709655439505 L 530.704434620966 103.6156225418335 L 530.6035320110913 103.78370080563158 L 530.4989164133465 103.95131453810299 L 530.3905982892041 104.11844697801416 L 530.2785884703866 104.28508141226035 L 530.1628981577821 104.45120117753703 L 530.0435389203259 104.61678966200607 L 529.920522693842 104.78183030695705 L 529.7938617798505 104.94630660846298 L 529.6635688443375 105.11020211903077 L 529.5296569164877 105.27350044924597 L 529.3921393873826 105.43618526941162 L 529.2510300086601 105.59824031118129 L 529.1063428911409 105.75964936918582 L 528.9580925034159 105.92039630265394 L 528.8062936704004 106.08046503702626 L 528.6509615718512 106.23983956556272 L 528.4921117408488 106.39850395094328 L 528.3297600622438 106.55644232686161 L 528.1639227710689 106.71363889961177 L 527.9946164509149 106.87007794966746 L 527.8218580322728 107.02574383325403 L 527.6456647908404 107.18062098391285 L 527.4660543457952 107.33469391405792 L 527.2830446580319 107.48794721652463 L 527.0966540283667 107.64036556611042 L 526.9069010957074 107.79193372110737 L 526.7138048351892 107.94263652482627 L 526.517384556277 108.09245890711233 L 526.317659900835 108.2413858858522 L 526.1146508411625 108.3894025684721 L 525.9083776779963 108.53649415342709 L 525.6988610384807 108.68264593168126 L 525.486121874105 108.8278432881786 L 525.2701814586086 108.97207170330445 L 525.0510613858528 109.11531675433747 L 524.8287835676625 109.25756411689196 L 524.6033702316342 109.39879956635015 L 524.3748439189138 109.53900897928484 L 524.143227481942 109.67817833487156 L 523.9085440821693 109.81629371629072 L 523.6708171877403 109.95334131211928 L 523.4300705711465 110.08930741771186 L 523.1863283068487 110.22417843657122 L 522.9396147688703 110.35794088170783 L 522.6899546283596 110.49058137698869 L 522.4373728511224 110.62208665847477 L 522.1818946951261 110.75244357574753 L 521.9235457079732 110.88163909322387 L 521.6623517243473 111.00966029145968 L 521.3983388634291 111.13649436844186 L 521.1315335262847 111.26212864086838 L 520.8619623932253 111.3865505454167 L 520.5896524211397 111.50974764000006 L 520.3146308407983 111.63170760501164 L 520.0369251541297 111.75241824455658 L 519.7565631314714 111.87186748767154 L 519.4735728087917 111.99004338953172 L 519.1879824848874 112.10693413264543 L 518.8998207185526 112.22252802803578 L 518.6091163257241 112.33681351640952 L 518.3158983765987 112.44977916931309 L 518.020196192727 112.56141369027532 L 517.722039344081 112.67170591593712 L 517.4214576460972 112.78064481716788 L 517.1184811566948 112.88821950016822 L 516.8131401732702 112.99441920755952 L 516.5054652296675 113.0992333194595 L 516.1954870931245 113.20265135454434 L 515.8832367611965 113.30466297109672 L 515.5687454586566 113.40525796803998 L 515.252044634373 113.50442628595825 L 514.9331659581641 113.60215800810239 L 514.6121413176319 113.69844336138162 L 514.2890028149728 113.79327271734086 L 513.9637827637679 113.88663659312353 L 513.6365136857513 113.97852565241985 L 513.307228307558 114.06893070640047 L 512.9759595574515 114.15784271463534 L 512.6427405620307 114.2452527859977 L 512.3076046429175 114.3311521795533 L 511.9705853134244 114.41553230543434 L 511.6317162752037 114.49838472569854 L 511.2910314148767 114.57970115517293 L 510.94856480064567 114.65947346228232 L 510.6043506788865 114.73769366986248 L 510.25842347072455 114.81435395595784 L 509.9108177685924 114.88944665460366 L 509.56156833277055 114.96296425659267 L 509.21071008791154 115.03489941022592 L 508.85827811954755 115.105244922048 L 508.5043076705817 115.17399375756635 L 508.14883413776386 115.2411390419547 L 507.7918930681511 115.30667406074058 L 507.43352015555297 115.37059226047671 L 507.07375123696204 115.43288724939639 L 506.7126222889704 115.49355279805263 L 506.3501694241719 115.55258283994114 L 505.98642888755097 115.60997147210689 L 505.62143705285814 115.66571295573452 L 505.25523041897276 115.7198017167221 L 504.88784560625305 115.77223234623861 L 504.51931935287405 115.82299960126478 L 504.14968851115407 115.87209840511744 L 503.7789900438692 115.9195238479571 L 503.40726102055737 115.96527118727899 L 503.034538613811 116.00933584838731 L 502.6608600955602 116.05171342485268 L 502.28626283334546 116.09239967895275 L 501.9107842865808 116.13139054209603 L 501.53446200280797 116.16868211522868 L 501.15733361394183 116.20427066922448 L 500.77943683250686 116.23815264525768 L 500.4008094478664 116.27032465515893 L 500.02148932244336 116.30078348175402 L 499.6415143879342 116.32952607918568 L 499.26092264151566 116.35654957321813 L 498.8797521420453 116.38185126152449 L 498.4980410062554 116.405428613957 L 498.1158274049414 116.42727927280006 L 497.73314955914503 116.44740105300602 L 497.3500457363319 116.4657919424136 L 496.966554246565 116.4824501019492 L 496.5827134386738 116.49737386581074 L 496.1985616964192 116.51056174163428 L 495.8141374346553 116.52201241064321 L 495.4294790954879 116.5317247277802 L 495.0446251444305 116.5396977218216 L 494.65961406655725 116.54593059547467 L 494.27448436265536 116.55042272545724 L 493.88927454537406 116.55317366256004 L 493.5040231353742 116.55418313169166 L 493.11876865747575 116.55345103190604 L 492.7335496368054 116.55097743641252 L 492.34840459494416 116.5467625925686 L 491.96337204607534 116.54080692185516 L 491.5784904931329 116.53311101983432 L 491.1937984239515 116.52367565608984 L 490.80933430741743 116.51250177415025 L 490.4251365896219 116.49959049139443 L 490.04124369001664 116.48494309893988 L 489.65769399757164 116.46856106151367 L 489.2745258669365 116.45044601730586 L 488.89177761460496 116.4305997778058 L 488.5094875150834 116.40902432762088 L 488.1276937970631 116.38572182427816 L 487.74643463959774 116.36069459800854 L 487.36574816828534 116.3339451515138 L 486.98567245145586 116.30547615971629 L 486.6062454963641 116.27529046949147 L 486.2275052453896 116.24339109938322 L 485.8494895722416 116.20978123930193 L 485.4722362781726 116.17446425020565 L 485.0957830881975 116.13744366376382 L 484.72016764732166 116.09872318200426 L 484.3454275167761 116.05830667694286 L 483.9716001702617 116.01619819019646 L 483.59872299020145 115.97240193257863 L 483.2268332640027 115.92692228367865 L 482.8559681803282 115.8797637914235 L 482.4861648253772 115.83093117162312 L 482.11746017917704 115.78042930749876 L 481.7498911118851 115.7282632491948 L 481.3834943801018 115.67443821327356 L 481.018306623195 115.61895958219381 L 480.654364359636 115.56183290377238 L 480.291703983348 115.50306389062955 L 479.93036176006626 115.44265841961764 L 479.57037382371215 115.38062253123343 L 479.21177617277914 115.31696242901404 L 478.8546046667337 115.25168447891664 L 478.4988950224286 115.18479520868186 L 478.14468281053195 115.11630130718099 L 477.7920034519697 115.04620962374707 L 477.4408922143839 114.97452716749007 L 477.0913842086057 114.90126110659584 L 476.74351438514435 114.82641876760945 L 476.3973175306923 114.75000763470243 L 476.0528282646466 114.67203534892437 L 475.71008103564674 114.59250970743888 L 475.3691101181299 114.51143866274384 L 475.02994960890385 114.42883032187616 L 474.69263342373677 114.3446929456011 L 474.35719529396613 114.25903494758614 L 474.02366876312533 114.17186489355974 L 473.6920871835896 114.08319150045465 L 473.36248371324047 113.99302363553626 L 473.03489131215036 113.90137031551595 L 472.7093427392864 113.80824070564933 L 472.38587054923454 113.71364411881979 L 472.0645070889443 113.61759001460716 L 471.74528449449383 113.52008799834185 L 471.4282346878766 113.42114782014421 L 471.1133893738091 113.32077937394963 L 470.8007800365603 113.21899269651907 L 470.4904379368034 113.11579796643547 L 470.18239410848986 113.01120550308582 L 469.8766793557457 112.90522576562931 L 469.5733242497915 112.79786935195136 L 469.27235912588503 112.68914699760388 L 468.97381408028787 112.57906957473172 L 468.6777189672558 112.4676480909854 L 468.38410339605343 112.35489368842047 L 468.0929967279932 112.24081764238323 L 467.8044280734992 112.1254313603832 L 467.51842628919655 112.00874638095245 L 467.23501997502524 111.89077437249165 L 466.9542374713806 111.77152713210336 L 466.676106856279 111.65101658441225 L 466.40065594255015 111.52925478037265 L 466.12791227505585 111.40625389606352 L 465.8579031279356 111.28202623147075 L 465.5906555018791 111.15658420925732 L 465.3261961214263 111.02994037352089 L 465.06455143229476 110.90210738853949 L 464.8057475987354 110.77309803750512 L 464.54981050091595 110.64292522124536 L 464.2967657323329 110.51160195693338 L 464.0466385972522 110.37914137678612 L 463.7994541081789 110.24555672675127 L 463.555236983356 110.11086136518249 L 463.31401164429246 109.97506876150368 L 463.0758022133211 109.83819249486207 L 462.8406325111865 109.70024625277026 L 462.608526054663 109.56124382973746 L 462.37950605420275 109.42119912589021 L 462.15359541161496 109.28012614558213 L 461.93081671777566 109.13803899599372 L 461.7111922503686 108.99495188572155 L 461.49474397165744 108.85087912335736 L 461.2814935262897 108.70583511605736 L 461.0714622391322 108.5598343681014 L 460.8646711131387 108.41289147944262 L 460.66114082724937 108.26502114424743 L 460.46089173432324 108.11623814942611 L 460.2639438591027 107.96655737315416 L 460.07031689621124 107.8159937833845 L 459.8800302081837 107.6645624363506 L 459.69310282353035 107.512278475061 L 459.5095534348339 107.35915712778491 L 459.3294003968802 107.20521370652946 L 459.15266172482296 107.0504636055085 L 458.9793550923821 106.89492229960317 L 458.80949783007645 106.73860534281442 L 458.64310692349073 106.5815283667077 L 458.4801990115768 106.4237070788497 L 458.3207903849903 106.2651572612377 L 458.1648969844609 106.10589476872134 L 458.0125343991988 105.94593552741715 L 457.8637178653355 105.78529553311594 L 457.7184622644004 105.62399084968331 L 457.5767821218326 105.46203760745315 L 457.4386916055282 105.29945200161475 L 457.3042045244239 105.1362502905932 L 457.1733343271155 104.97244879442357 L 457.046094100514 104.80806389311903 L 456.92249656853573 104.64311202503268 L 456.802554090831 104.47760968521388 L 456.68627866154765 104.3115734237587 L 456.57368190813173 104.14501984415493 L 456.46477509016466 103.97796560162172 L 456.3595690982376 103.81042740144412 L 456.258074452862 103.64242199730253 L 456.1603013034178 103.47396618959736 L 456.0662594271385 103.305076823769 L 455.9759582281334 103.1357707886133 L 455.88940673644703 102.96606501459269 L 455.8066136071565 102.79597647214312 L 455.72758711950587 102.62552216997715 L 455.6523351760778 102.4547191533829 L 455.58086530200416 102.28358450251972 L 455.51318464421263 102.11213533071007 L 455.4492999707127 101.94038878272828 L 455.3892176699184 101.768362033086 L 455.3329437500098 101.59607228431486 L 455.280483838332 101.42353676524615 L 455.23184318083236 101.25077272928802 L 455.1870266415362 101.07779745270005 L 455.1460387020601 100.9046282328658 L 455.1088834611637 100.73128238656292 L 455.07556463434037 100.5577772482316 L 455.0460855534448 100.38413016824109 L 455.02044916636066 100.21035851115465 L 454.99865803670525 100.03647965399321 L 454.9807143435734 99.86251098449759 L 454.96661988131945 99.68846989938976 L 454.9563760593778 99.51437380263317 L 454.94998390212226 99.34024010369247 L 454.9474440487631 99.16608621579239 L 454.9487567532836 98.99192955417662 L 454.9539218844144 98.81778753436619 L 454.96293892564665 98.64367757041796 L 454.97580697528383 98.46961707318323 L 454.9925247465316 98.29562344856669 L 455.0130905676269 98.12171409578578 L 455.03750238200456 97.94790640563087 L 455.06575774850364 97.77421775872614 L 455.09785384161097 97.60066552379153 L 455.133787451744 97.42726705590593 L 455.17355498557174 97.25403969477159 L 455.2171524663738 97.0810007629803 L 455.2645755344385 96.90816756428103 L 455.3158194474986 96.73555738184962 L 455.37087908120543 96.56318747656049 L 455.42974892964156 96.3910750852605 L 455.4924231058711 96.21923741904537 L 455.55889534252884 96.04769166153852 L 455.6291589924463 95.87645496717275 L 455.7032070293172 95.70554445947478 L 455.7810320483995 95.53497722935299 L 455.8626262672561 95.36477033338824 L 455.9479815265331 95.19494079212826 L 456.03708929077584 95.0255055883857 L 456.12994064928205 94.85648166553969 L 456.2265263169932 94.6878859258417 L 456.32683663542315 94.5197352287252 L 456.4308615736236 94.35204638911974 L 456.5385907291873 94.18483617576958 L 456.6500133292886 94.0181213095567 L 456.7651182317603 93.85191846182879 L 456.8838939262081 93.68624425273212 L 457.00632853516146 93.52111524954954 L 457.1324098152616 93.35654796504377 L 457.2621251584855 93.19255885580611 L 457.39546159340705 93.02916432061083 L 457.5324057864937 92.86638069877529 L 457.6729440434404 92.70422426852602 L 457.8170623105385 92.54271124537092 L 457.96474617608146 92.3818577804777 L 458.11598087180573 92.22167995905882 L 458.2707512743678 92.06219379876292 L 458.42904190685636 91.90341524807314 L 458.59083694034007 91.74536018471224 L 458.7561201954504 91.58804441405483 L 458.92487514399966 91.43148366754689 L 459.0970849106335 91.27569360113259 L 459.27273227451883 91.12068979368877 L 459.4517996710657 90.96648774546698 L 459.63426919368356 90.81310287654355 L 459.82012259557223 90.66055052527756 L 460.00934129154643 90.508845946777 L 460.2019063598943 90.3580043113733 L 460.39779854426934 90.2080407031043 L 460.5969982556164 90.05897011820588 L 460.7994855741305 89.91080746361227 L 461.00524025124827 89.76356755546549 L 461.21424171167365 89.61726511763362 L 461.4264690554347 89.47191478023856 L 461.64190105997386 89.32753107819292 L 461.8605161822703 89.18412844974657 L 462.0822925609939 89.04172123504284 L 462.3072080186916 88.90032367468457 L 462.53524006400505 88.75994990830995 L 462.76636589391984 88.6206139731786 L 463.00056239604544 88.48232980276798 L 463.23780615092693 88.34511122537985 L 463.47807343438643 88.20897196275763 L 463.72134021989586 88.07392562871412 L 463.9675821809794 87.93998572777018 L 464.2167746936461 87.80716565380429 L 464.46889283885235 87.67547868871318 L 464.7239114049938 87.54493800108361 L 464.9818048904263 87.41555664487555 L 465.24254750601625 87.2873475581168 L 465.5061131777193 87.16032356160923 L 465.772475549188 87.0344973576466 L 466.0416079844071 86.90988152874448 L 466.31348357035745 86.78648853638188 L 466.5880751197069 86.66433071975524 L 466.86535517352945 86.54342029454442 L 467.1452960040507 86.42376935169116 L 467.4278696174209 86.30538985619008 L 467.71304775651424 86.18829364589203 L 468.00080190375445 86.0724924303205 L 468.2911032839665 85.95799778950051 L 468.5839228672544 85.84482117280076 L 468.8792313719038 85.73297389778861 L 469.1769992673103 85.62246714909833 L 469.47719677693254 85.51331197731271 L 469.7797938812697 85.40551929785798 L 470.0847603208635 85.29909988991224 L 470.3920655993241 85.19406439532762 L 470.7016789863798 85.09042331756602 L 471.0135695209499 84.98818702064888 L 471.3277060142408 84.88736572812068 L 471.6440570528649 84.78796952202666 L 471.96259100198216 84.6900083419046 L 472.2832760084629 84.59349198379087 L 472.6060800040739 84.49843009924086 L 472.9309707086844 84.40483219436382 L 473.2579156334948 84.3127076288722 L 473.5868820842851 84.22206561514581 L 473.9178371646843 84.13291521731048 L 474.25074777946014 84.0452653503317 L 474.58558063782857 83.95912477912314 L 474.92230225678287 83.87450211767012 L 475.26087896444164 83.79140582816828 L 475.6012769034163 83.70984422017732 L 475.9434620341966 83.62982544979005 L 476.2874001385547 83.55135751881686 L 476.63305682296664 83.47444827398543 L 476.9803975220521 83.39910540615617 L 477.3293875020306 83.32533644955306 L 477.679991864195 83.25314878101032 L 478.03217554840126 83.18254961923462 L 478.3859033365744 83.1135460240833 L 478.7411398562304 83.04614489585839 L 479.0978495840133 82.98035297461655 L 479.45599684924764 82.91617683949505 L 479.8155458375053 82.85362290805395 L 480.176460594187 82.79269743563424 L 480.538705028118 82.73340651473242 L 480.90224291515665 82.67575607439116 L 481.2670379018173 82.61975187960644 L 481.63305350890516 82.56539953075108 L 482.0002531351646 82.51270446301467 L 482.368600060939 82.46167194586008 L 482.73805745184274 82.41230708249647 L 483.10858836244455 82.36461480936907 L 483.4801557399622 82.31859989566543 L 483.85272242796754 82.2742669428386 L 484.2262511701023 82.23162038414688 L 484.60070461380343 82.19066448421063 L 484.97604531403874 82.15140333858571 L 485.35223573705093 82.11384087335396 L 485.72923826411113 82.0779808447306 L 486.1070151952809 82.04382683868862 L 486.4855287531819 82.01138227060014 L 486.86474108677373 81.98065038489496 L 487.24461427513904 81.951634254736 L 487.6251103312756 81.92433678171216 L 488.0061912058949 81.89876069554792 L 488.387818791227 81.87490855383064 L 488.7699549248313 81.8527827417546 L 489.15256139341307 81.83238547188255 L 489.5355999366442 81.81371878392449 L 489.9190322509895 81.79678454453366 L 490.3028199935371 81.78158444711991 L 490.6869247858327 81.7681200116803 L 491.071308217717 81.75639258464713 L 491.4559318511671 81.74640333875335 L 491.8407572241403 81.73815327291524 L 492.22574585442 81.73164321213248 L 492.61085924346384 81.72687380740575 L 492.99605888025394 81.72384553567153 L 493.38130624514764 81.72255869975447 L 493.7665628137295 81.7230134283371 L 494.15179006066364 81.72520967594693 L 494.5369494635464 81.72914722296105 L 494.9220025067585 81.734825675628 L 495.3069106853165 81.74224446610728 L 495.6916355087232 81.75140285252601 L 496.076138504817 81.76229991905319 L 496.4603812236186 81.77493457599125 L 496.84432524117636 81.78930555988501 L 497.2279321634085 81.80541143364806 L 497.61116362994244 81.82325058670645 L 497.9939813179509 81.84282123515973 L 498.3763469459841 81.8641214219594 L 498.75822227779787 81.88714901710448 L 499.1395691261772 81.91190171785466 L 499.52034935675516 81.93837704896052 L 499.90052489182585 81.96657236291098 L 500.2800577141527 81.99648484019815 L 500.6589098707697 82.02811148959924 L 501.03704347677694 82.06144914847566 L 501.4144207191289 82.09649448308929 L 501.7910038604158 82.13324398893589 L 502.16675524263735 82.17169399109548 L 502.5416372909685 82.21184064459992 L 502.91561251751676 82.25367993481728 L 503.2886435250711 82.29720767785342 L 503.66069301084167 82.34241952097031 L 504.03172377018996 82.3893109430213 L 504.40169870034913 82.43787725490328 L 504.77058080413457 82.48811360002553 L 505.1383331936433 82.5400149547954 L 505.50491909394276 82.59357612912065 L 505.8703018467484 82.6487917669285 L 506.2344449140895 82.70565634670118 L 506.59731188196275 82.76416418202808 L 506.9588664639737 82.82430942217445 L 507.31907250496556 82.88608605266639 L 507.6778939846343 82.94948789589232 L 508.035295021131 83.01450861172076 L 508.39123987464984 83.0811416981343 L 508.74569295100207 83.14938049187985 L 509.0986188051755 83.21921816913488 L 509.44998214487873 83.29064774618986 L 509.7997478340706 83.36366208014663 L 510.14788089647374 83.43825386963262 L 510.49434651907194 83.51441565553105 L 510.83911005559173 83.59213982172679 L 511.18213702996667 83.671418595868 L 511.52339313978524 83.75224405014333 L 511.8628442597209 83.83460810207471 L 512.2004564449444 83.91850251532557 L 512.5361959345186 84.0039189005245 L 512.8700291547743 84.09084871610418 L 513.2019227226677 84.17928326915546 L 513.5318434491187 84.26921371629676 L 513.8597583423295 84.36063106455829 L 514.185634611084 84.45352617228141 L 514.5094396680269 84.54788975003277 L 514.8311411329223 84.6437123615332 L 515.1507068358919 84.74098442460144 L 515.4681048206317 84.83969621211223 L 515.7833033476076 84.93983785296906 L 516.0962708972296 85.04139933309132 L 516.4069761730037 85.14437049641562 L 516.7153881046611 85.24874104591143 L 517.0214758512657 85.3545005446108 L 517.3252088042977 85.46163841665197 L 517.6265565907154 85.57014394833702 L 517.9254890759908 85.68000628920322 L 518.2219763671246 85.791214453108 L 518.515988815635 85.90375731932768 L 518.8074970205219 86.0176236336694 L 519.0964718312077 86.13280200959663 L 519.3828843504524 86.24928092936774 L 519.6667059372425 86.36704874518784 L 519.947908209656 86.48609368037347 L 520.2264630476999 86.60640383053033 L 520.5023425961225 86.72796716474365 L 520.775519267199 86.8507715267813 L 521.0459657434899 86.97480463630944 L 521.3136549805728 87.10005409012047 L 521.5785602097473 87.22650736337337 L 521.8406549407109 87.35415181084622 L 522.0999129642092 87.48297466820061 L 522.3563083546558 87.61296305325817 L 522.6098154727254 87.74410396728872 L 522.8604089679172 87.87638429631014 L 523.1080637810909 88.00979081239976 L 523.3527551469713 88.14431017501714 L 523.5944585966256 88.27992893233812 L 523.8331499599105 88.41663352259998 L 524.0688053678886 88.55441027545763 L 524.3014012552153 88.69324541335057 L 524.5309143624958 88.83312505288072 L 524.7573217386106 88.9740352062007 L 524.9806007430108 89.1159617824126 L 525.2007290479819 89.25889058897707 L 525.417684640877 89.40280733313254 L 525.6314458263175 89.54769762332457 L 525.8419912283632 89.69354697064483 L 526.049299792649 89.84034079028017 L 526.2533507884915 89.98806440297092 L 526.454123810961 90.13670303647895 L 526.6515987829227 90.28624182706474 L 526.8457559570439 90.43666582097387 L 527.0365759177689 90.5879599759323 L 527.2240395832608 90.7401091626506 L 527.4081282073092 90.8930981663369 L 527.5888233812051 91.0469116882183 L 527.7661070355816 91.20153434707083 L 527.9399614422211 91.35695068075742 L 528.110369215828 91.51314514777422 L 528.2773133157665 91.67010212880471 L 528.4407770477661 91.82780592828158 L 528.6007440655897 91.98624077595628 L 528.7571983726687 92.14539082847608 L 528.9101243237029 92.30524017096836 L 529.0595066262248 92.46577281863208 L 529.2053303421283 92.62697271833625 L 529.3475808891635 92.78882375022522 L 529.4862440423942 92.95130972933067 L 529.6213059356206 93.11441440719013 L 529.752753062766 93.2781214734717 L 529.8805722792273 93.44241455760519 L 530.0047508031893 93.6072772304191 L 530.1252762169029 93.77269300578352 L 530.2421364679274 93.93864534225877 L 530.3553198703349 94.1051176447495 L 530.4648151058798 94.27209326616416 L 530.5706112251294 94.43955550907978 L 530.6726976485602 94.60748762741163 L 530.7710641676148 94.77587282808778 L 530.8657009457232 94.94469427272853 L 530.9565985192867 95.11393507933006 L 531.0437477986235 95.28357832395277 L 531.1271400688784 95.45360704241355 L 531.2067669908937 95.62400423198225 L 531.2826206020437 95.79475285308192 L 531.3546933170305 95.96583583099272 L 531.4229779286426 96.13723605755945 L 531.4874676084758 96.30893639290227 L 531.5481559076156 96.48091966713072 L 531.6050367572832 96.65316868206072 L 531.6581044694404 96.82566621293432 L 531.7073537373608 96.99839501014216 L 531.7527796361583 97.17133780094846 L 531.7943776232809 97.34447729121827 L 531.8321435389645 97.51779616714684 L 531.8660736066493 97.691277096991 L 531.8961644333564 97.86490273280235 L 531.9224130100285 98.038655712162 L 531.9448167118297 98.21251865991678 L 531.9633732984086 98.38647418991683 L 531.9780809141218 98.56050490675408 L 531.9889380882202 98.73459340750189 L 531.9959437349953 98.90872228345528 L 531.9990971538882 99.08287412187171 M 531.9992925993633 154.55238463770004 L 531.9973663179804 154.7265401333346 L 531.9915876664584 154.9006782135647 L 531.9819572226575 155.07478146472747 L 531.9684759496139 155.24883247664286 L 531.9511451954439 155.42281384435472 L 531.9299666932085 155.59670816987128 L 531.9049425607402 155.77049806390488 L 531.8760753004314 155.94416614761096 L 531.843367798984 156.11769505432588 L 531.8068233271209 156.29106743130353 L 531.7664455392589 156.46426594145072 L 531.7222384731432 156.63727326506077 L 531.6742065494435 156.8100721015455 L 531.6223545713121 156.98264517116522 L 531.5666877239037 157.1549752167568 L 531.5072115738565 157.32704500545933 L 531.443932068736 157.49883733043725 L 531.3768555364401 157.6703350126013 L 531.305988684566 157.84152090232612 L 531.23133859974 158.01237788116543 L 531.1529127469081 158.1828888635637 L 531.0707189685904 158.35303679856483 L 530.9847654840963 158.52280467151704 L 530.8950608887026 158.69217550577454 L 530.8016141527938 158.86113236439505 L 530.704434620966 159.0296583518335 L 530.6035320110913 159.19773661563158 L 530.4989164133465 159.365350348103 L 530.3905982892041 159.53248278801416 L 530.2785884703866 159.69911722226036 L 530.1628981577821 159.86523698753703 L 530.0435389203259 160.0308254720061 L 529.920522693842 160.19586611695703 L 529.7938617798505 160.36034241846298 L 529.6635688443375 160.5242379290308 L 529.5296569164877 160.68753625924597 L 529.3921393873826 160.85022107941163 L 529.2510300086601 161.0122761211813 L 529.1063428911409 161.1736851791858 L 528.9580925034159 161.33443211265396 L 528.8062936704004 161.49450084702625 L 528.6509615718512 161.6538753755627 L 528.4921117408488 161.81253976094328 L 528.3297600622438 161.97047813686163 L 528.1639227710689 162.12767470961177 L 527.9946164509149 162.28411375966746 L 527.8218580322728 162.43977964325404 L 527.6456647908404 162.59465679391286 L 527.4660543457952 162.74872972405794 L 527.2830446580319 162.90198302652462 L 527.0966540283667 163.05440137611043 L 526.9069010957074 163.20596953110737 L 526.7138048351892 163.35667233482627 L 526.517384556277 163.50649471711233 L 526.317659900835 163.6554216958522 L 526.1146508411625 163.8034383784721 L 525.9083776779963 163.95052996342707 L 525.6988610384807 164.09668174168127 L 525.486121874105 164.2418790981786 L 525.2701814586086 164.38610751330447 L 525.0510613858528 164.52935256433747 L 524.8287835676625 164.67159992689196 L 524.6033702316342 164.81283537635017 L 524.3748439189138 164.95304478928483 L 524.143227481942 165.09221414487158 L 523.9085440821693 165.23032952629072 L 523.6708171877403 165.36737712211928 L 523.4300705711465 165.50334322771187 L 523.1863283068487 165.6382142465712 L 522.9396147688703 165.77197669170783 L 522.6899546283596 165.9046171869887 L 522.4373728511224 166.0361224684748 L 522.1818946951261 166.16647938574755 L 521.9235457079732 166.29567490322387 L 521.6623517243473 166.42369610145968 L 521.3983388634291 166.55053017844187 L 521.1315335262847 166.67616445086838 L 520.8619623932253 166.8005863554167 L 520.5896524211397 166.92378345000006 L 520.3146308407983 167.04574341501163 L 520.0369251541297 167.1664540545566 L 519.7565631314714 167.28590329767155 L 519.4735728087917 167.40407919953174 L 519.1879824848874 167.52096994264545 L 518.8998207185526 167.63656383803578 L 518.6091163257241 167.75084932640954 L 518.3158983765987 167.86381497931308 L 518.020196192727 167.97544950027532 L 517.722039344081 168.08574172593714 L 517.4214576460972 168.19468062716788 L 517.1184811566948 168.30225531016822 L 516.8131401732702 168.4084550175595 L 516.5054652296675 168.5132691294595 L 516.1954870931245 168.61668716454435 L 515.8832367611965 168.71869878109672 L 515.5687454586566 168.81929377804 L 515.252044634373 168.91846209595826 L 514.9331659581641 169.01619381810238 L 514.6121413176319 169.1124791713816 L 514.2890028149728 169.20730852734084 L 513.9637827637679 169.3006724031235 L 513.6365136857513 169.39256146241985 L 513.307228307558 169.48296651640047 L 512.9759595574515 169.57187852463534 L 512.6427405620307 169.6592885959977 L 512.3076046429175 169.7451879895533 L 511.9705853134244 169.82956811543434 L 511.6317162752037 169.91242053569854 L 511.2910314148767 169.99373696517293 L 510.94856480064567 170.0735092722823 L 510.6043506788865 170.15172947986247 L 510.25842347072455 170.22838976595784 L 509.9108177685924 170.30348246460366 L 509.56156833277055 170.37700006659267 L 509.21071008791154 170.4489352202259 L 508.85827811954755 170.519280732048 L 508.5043076705817 170.58802956756634 L 508.14883413776386 170.6551748519547 L 507.7918930681511 170.72070987074056 L 507.43352015555297 170.7846280704767 L 507.07375123696204 170.84692305939637 L 506.7126222889704 170.90758860805263 L 506.3501694241719 170.96661864994113 L 505.98642888755097 171.02400728210688 L 505.62143705285814 171.0797487657345 L 505.25523041897276 171.1338375267221 L 504.88784560625305 171.1862681562386 L 504.51931935287405 171.2370354112648 L 504.14968851115407 171.28613421511744 L 503.7789900438692 171.3335596579571 L 503.40726102055737 171.379306997279 L 503.034538613811 171.4233716583873 L 502.6608600955602 171.46574923485267 L 502.28626283334546 171.50643548895275 L 501.9107842865808 171.54542635209603 L 501.53446200280797 171.58271792522868 L 501.15733361394183 171.6183064792245 L 500.77943683250686 171.6521884552577 L 500.4008094478664 171.68436046515893 L 500.02148932244336 171.71481929175403 L 499.6415143879342 171.74356188918568 L 499.26092264151566 171.77058538321813 L 498.8797521420453 171.79588707152448 L 498.4980410062554 171.819464423957 L 498.1158274049414 171.84131508280007 L 497.73314955914503 171.86143686300602 L 497.3500457363319 171.8798277524136 L 496.966554246565 171.89648591194918 L 496.5827134386738 171.91140967581075 L 496.1985616964192 171.9245975516343 L 495.8141374346553 171.93604822064322 L 495.4294790954879 171.9457605377802 L 495.0446251444305 171.9537335318216 L 494.65961406655725 171.9599664054747 L 494.27448436265536 171.96445853545725 L 493.88927454537406 171.96720947256006 L 493.5040231353742 171.96821894169167 L 493.11876865747575 171.96748684190604 L 492.7335496368054 171.96501324641252 L 492.34840459494416 171.9607984025686 L 491.96337204607534 171.95484273185517 L 491.5784904931329 171.9471468298343 L 491.1937984239515 171.93771146608984 L 490.80933430741743 171.92653758415025 L 490.4251365896219 171.91362630139443 L 490.04124369001664 171.89897890893988 L 489.65769399757164 171.88259687151367 L 489.2745258669365 171.86448182730587 L 488.89177761460496 171.8446355878058 L 488.5094875150834 171.8230601376209 L 488.1276937970631 171.79975763427817 L 487.74643463959774 171.77473040800854 L 487.36574816828534 171.7479809615138 L 486.98567245145586 171.71951196971628 L 486.6062454963641 171.68932627949147 L 486.2275052453896 171.65742690938322 L 485.8494895722416 171.62381704930195 L 485.4722362781726 171.58850006020566 L 485.0957830881975 171.55147947376383 L 484.72016764732166 171.51275899200425 L 484.3454275167761 171.47234248694286 L 483.9716001702617 171.43023400019646 L 483.59872299020145 171.38643774257864 L 483.2268332640027 171.34095809367864 L 482.8559681803282 171.2937996014235 L 482.4861648253772 171.24496698162312 L 482.11746017917704 171.19446511749877 L 481.7498911118851 171.1422990591948 L 481.3834943801018 171.08847402327356 L 481.018306623195 171.0329953921938 L 480.654364359636 170.9758687137724 L 480.291703983348 170.91709970062956 L 479.93036176006626 170.85669422961763 L 479.57037382371215 170.79465834123343 L 479.21177617277914 170.73099823901404 L 478.8546046667337 170.66572028891665 L 478.4988950224286 170.59883101868186 L 478.14468281053195 170.53033711718098 L 477.7920034519697 170.46024543374708 L 477.4408922143839 170.38856297749007 L 477.0913842086057 170.31529691659586 L 476.74351438514435 170.24045457760946 L 476.3973175306923 170.16404344470243 L 476.0528282646466 170.08607115892437 L 475.71008103564674 170.00654551743887 L 475.3691101181299 169.92547447274384 L 475.02994960890385 169.84286613187618 L 474.69263342373677 169.7587287556011 L 474.35719529396613 169.67307075758615 L 474.02366876312533 169.58590070355973 L 473.6920871835896 169.49722731045463 L 473.36248371324047 169.40705944553625 L 473.03489131215036 169.31540612551595 L 472.7093427392864 169.22227651564933 L 472.38587054923454 169.1276799288198 L 472.0645070889443 169.03162582460718 L 471.74528449449383 168.93412380834187 L 471.4282346878766 168.83518363014423 L 471.1133893738091 168.73481518394962 L 470.8007800365603 168.63302850651908 L 470.4904379368034 168.52983377643545 L 470.18239410848986 168.42524131308582 L 469.8766793557457 168.3192615756293 L 469.5733242497915 168.21190516195136 L 469.27235912588503 168.1031828076039 L 468.97381408028787 167.9931053847317 L 468.6777189672558 167.88168390098542 L 468.38410339605343 167.76892949842048 L 468.0929967279932 167.65485345238324 L 467.8044280734992 167.5394671703832 L 467.51842628919655 167.42278219095243 L 467.23501997502524 167.30481018249165 L 466.9542374713806 167.18556294210336 L 466.676106856279 167.06505239441225 L 466.40065594255015 166.94329059037267 L 466.12791227505585 166.8202897060635 L 465.8579031279356 166.69606204147075 L 465.5906555018791 166.57062001925732 L 465.3261961214263 166.44397618352087 L 465.06455143229476 166.3161431985395 L 464.8057475987354 166.18713384750512 L 464.54981050091595 166.05696103124538 L 464.2967657323329 165.92563776693336 L 464.0466385972522 165.79317718678612 L 463.7994541081789 165.65959253675126 L 463.555236983356 165.5248971751825 L 463.31401164429246 165.38910457150368 L 463.0758022133211 165.2522283048621 L 462.8406325111865 165.11428206277026 L 462.608526054663 164.97527963973747 L 462.37950605420275 164.8352349358902 L 462.15359541161496 164.69416195558213 L 461.93081671777566 164.55207480599373 L 461.7111922503686 164.40898769572155 L 461.49474397165744 164.26491493335737 L 461.2814935262897 164.11987092605736 L 461.0714622391322 163.9738701781014 L 460.8646711131387 163.8269272894426 L 460.66114082724937 163.67905695424741 L 460.46089173432324 163.5302739594261 L 460.2639438591027 163.38059318315416 L 460.07031689621124 163.2300295933845 L 459.8800302081837 163.0785982463506 L 459.69310282353035 162.926314285061 L 459.5095534348339 162.77319293778493 L 459.3294003968802 162.61924951652946 L 459.15266172482296 162.4644994155085 L 458.9793550923821 162.30895810960317 L 458.80949783007645 162.15264115281443 L 458.64310692349073 161.99556417670772 L 458.4801990115768 161.8377428888497 L 458.3207903849903 161.6791930712377 L 458.1648969844609 161.51993057872136 L 458.0125343991988 161.35997133741714 L 457.8637178653355 161.19933134311594 L 457.7184622644004 161.0380266596833 L 457.5767821218326 160.87607341745317 L 457.4386916055282 160.71348781161475 L 457.3042045244239 160.55028610059318 L 457.1733343271155 160.38648460442357 L 457.046094100514 160.22209970311903 L 456.92249656853573 160.05714783503268 L 456.802554090831 159.89164549521388 L 456.68627866154765 159.72560923375872 L 456.57368190813173 159.55905565415492 L 456.46477509016466 159.39200141162172 L 456.3595690982376 159.22446321144412 L 456.258074452862 159.05645780730254 L 456.1603013034178 158.88800199959735 L 456.0662594271385 158.71911263376902 L 455.9759582281334 158.54980659861332 L 455.88940673644703 158.3801008245927 L 455.8066136071565 158.21001228214314 L 455.72758711950587 158.03955797997713 L 455.6523351760778 157.8687549633829 L 455.58086530200416 157.69762031251972 L 455.51318464421263 157.52617114071006 L 455.4492999707127 157.3544245927283 L 455.3892176699184 157.182397843086 L 455.3329437500098 157.01010809431486 L 455.280483838332 156.83757257524616 L 455.23184318083236 156.664808539288 L 455.1870266415362 156.49183326270006 L 455.1460387020601 156.3186640428658 L 455.1088834611637 156.14531819656293 L 455.07556463434037 155.97181305823162 L 455.0460855534448 155.7981659782411 L 455.02044916636066 155.62439432115465 L 454.99865803670525 155.4505154639932 L 454.9807143435734 155.2765467944976 L 454.96661988131945 155.10250570938976 L 454.9563760593778 154.92840961263317 L 454.94998390212226 154.75427591369245 L 454.9474440487631 154.5801220257924" stroke-miterlimit="10" stroke-width="4.485898137" stroke-dasharray=""/></g><g><g/><text fill="black" stroke="none" font-family="sans-serif" font-size="11pt" font-style="normal" font-weight="normal" text-decoration="normal" x="448.8263559783243" y="200.28215799900002" text-anchor="start" dominant-baseline="alphabetic" xml:space="preserve">Client Queue</text></g><g><path fill="white" stroke="black" paint-order="fill stroke markers" d=" M 586.8855756873634 156.47868207300004 L 586.8855756873634 101.06464626300004 L 663.9374730993634 101.06464626300004 L 663.9374730993634 156.47868207300004" stroke-miterlimit="10" stroke-width="4.485898137" stroke-dasharray=""/><path fill="white" stroke="black" paint-order="fill stroke markers" d=" M 663.9374730993634 99.13834882770004 L 663.9355468179805 99.31250432333458 L 663.9297681664584 99.48664240356469 L 663.9201377226575 99.66074565472746 L 663.9066564496139 99.83479666664284 L 663.889325695444 100.00877803435472 L 663.8681471932085 100.18267235987128 L 663.8431230607403 100.35646225390488 L 663.8142558004314 100.53013033761096 L 663.781548298984 100.70365924432586 L 663.745003827121 100.87703162130353 L 663.704626039259 101.05023013145072 L 663.6604189731432 101.22323745506077 L 663.6123870494436 101.39603629154549 L 663.5605350713122 101.56860936116522 L 663.5048682239037 101.74093940675681 L 663.4453920738565 101.91300919545932 L 663.382112568736 102.08480152043727 L 663.3150360364401 102.2562992026013 L 663.2441691845661 102.42748509232614 L 663.16951909974 102.59834207116543 L 663.0910932469081 102.76885305356372 L 663.0088994685905 102.93900098856481 L 662.9229459840964 103.10876886151704 L 662.8332413887026 103.27813969577454 L 662.7397946527939 103.44709655439505 L 662.6426151209661 103.6156225418335 L 662.5417125110913 103.78370080563158 L 662.4370969133465 103.95131453810299 L 662.3287787892042 104.11844697801416 L 662.2167689703866 104.28508141226035 L 662.1010786577822 104.45120117753703 L 661.9817194203259 104.61678966200607 L 661.8587031938421 104.78183030695705 L 661.7320422798506 104.94630660846298 L 661.6017493443376 105.11020211903077 L 661.4678374164878 105.27350044924597 L 661.3303198873826 105.43618526941162 L 661.1892105086602 105.59824031118129 L 661.044523391141 105.75964936918582 L 660.8962730034159 105.92039630265394 L 660.7444741704004 106.08046503702626 L 660.5891420718513 106.23983956556272 L 660.4302922408489 106.39850395094328 L 660.2679405622439 106.55644232686161 L 660.1021032710689 106.71363889961177 L 659.932796950915 106.87007794966746 L 659.7600385322728 107.02574383325403 L 659.5838452908405 107.18062098391285 L 659.4042348457953 107.33469391405792 L 659.221225158032 107.48794721652463 L 659.0348345283668 107.64036556611042 L 658.8450815957075 107.79193372110737 L 658.6519853351892 107.94263652482627 L 658.455565056277 108.09245890711233 L 658.255840400835 108.2413858858522 L 658.0528313411626 108.3894025684721 L 657.8465581779964 108.53649415342709 L 657.6370415384807 108.68264593168126 L 657.4243023741051 108.8278432881786 L 657.2083619586086 108.97207170330445 L 656.9892418858528 109.11531675433747 L 656.7669640676626 109.25756411689196 L 656.5415507316343 109.39879956635015 L 656.3130244189139 109.53900897928484 L 656.081407981942 109.67817833487156 L 655.8467245821694 109.81629371629072 L 655.6089976877404 109.95334131211928 L 655.3682510711466 110.08930741771186 L 655.1245088068488 110.22417843657122 L 654.8777952688704 110.35794088170783 L 654.6281351283596 110.49058137698869 L 654.3755533511224 110.62208665847477 L 654.1200751951261 110.75244357574753 L 653.8617262079732 110.88163909322387 L 653.6005322243474 111.00966029145968 L 653.3365193634291 111.13649436844186 L 653.0697140262847 111.26212864086838 L 652.8001428932254 111.3865505454167 L 652.5278329211397 111.50974764000006 L 652.2528113407983 111.63170760501164 L 651.9751056541297 111.75241824455658 L 651.6947436314714 111.87186748767154 L 651.4117533087917 111.99004338953172 L 651.1261629848874 112.10693413264543 L 650.8380012185527 112.22252802803578 L 650.5472968257242 112.33681351640952 L 650.2540788765988 112.44977916931309 L 649.958376692727 112.56141369027532 L 649.6602198440811 112.67170591593712 L 649.3596381460973 112.78064481716788 L 649.0566616566948 112.88821950016822 L 648.7513206732702 112.99441920755952 L 648.4436457296675 113.0992333194595 L 648.1336675931245 113.20265135454434 L 647.8214172611965 113.30466297109672 L 647.5069259586567 113.40525796803998 L 647.190225134373 113.50442628595825 L 646.8713464581641 113.60215800810239 L 646.5503218176319 113.69844336138162 L 646.2271833149729 113.79327271734086 L 645.9019632637679 113.88663659312353 L 645.5746941857514 113.97852565241985 L 645.2454088075581 114.06893070640047 L 644.9141400574515 114.15784271463534 L 644.5809210620307 114.2452527859977 L 644.2457851429175 114.3311521795533 L 643.9087658134245 114.41553230543434 L 643.5698967752038 114.49838472569854 L 643.2292119148768 114.57970115517293 L 642.8867453006457 114.65947346228232 L 642.5425311788865 114.73769366986248 L 642.1966039707246 114.81435395595784 L 641.8489982685924 114.88944665460366 L 641.4997488327706 114.96296425659267 L 641.1488905879116 115.03489941022592 L 640.7964586195476 115.105244922048 L 640.4424881705818 115.17399375756635 L 640.0870146377639 115.2411390419547 L 639.7300735681512 115.30667406074058 L 639.371700655553 115.37059226047671 L 639.0119317369621 115.43288724939639 L 638.6508027889705 115.49355279805263 L 638.2883499241719 115.55258283994114 L 637.9246093875511 115.60997147210689 L 637.5596175528582 115.66571295573452 L 637.1934109189729 115.7198017167221 L 636.826026106253 115.77223234623861 L 636.4574998528741 115.82299960126478 L 636.0878690111541 115.87209840511744 L 635.7171705438693 115.9195238479571 L 635.3454415205574 115.96527118727899 L 634.9727191138111 116.00933584838731 L 634.5990405955603 116.05171342485268 L 634.2244433333456 116.09239967895275 L 633.8489647865808 116.13139054209603 L 633.4726425028081 116.16868211522868 L 633.0955141139418 116.20427066922448 L 632.717617332507 116.23815264525768 L 632.3389899478665 116.27032465515893 L 631.9596698224434 116.30078348175402 L 631.5796948879342 116.32952607918568 L 631.1991031415157 116.35654957321813 L 630.8179326420453 116.38185126152449 L 630.4362215062554 116.405428613957 L 630.0540079049415 116.42727927280006 L 629.671330059145 116.44740105300602 L 629.2882262363319 116.4657919424136 L 628.904734746565 116.4824501019492 L 628.5208939386738 116.49737386581074 L 628.1367421964193 116.51056174163428 L 627.7523179346554 116.52201241064321 L 627.367659595488 116.5317247277802 L 626.9828056444305 116.5396977218216 L 626.5977945665574 116.54593059547467 L 626.2126648626554 116.55042272545724 L 625.8274550453741 116.55317366256004 L 625.4422036353743 116.55418313169166 L 625.0569491574757 116.55345103190604 L 624.6717301368054 116.55097743641252 L 624.2865850949441 116.5467625925686 L 623.9015525460753 116.54080692185516 L 623.516670993133 116.53311101983432 L 623.1319789239516 116.52367565608984 L 622.7475148074175 116.51250177415025 L 622.363317089622 116.49959049139443 L 621.9794241900167 116.48494309893988 L 621.5958744975717 116.46856106151367 L 621.2127063669366 116.45044601730586 L 620.829958114605 116.4305997778058 L 620.4476680150834 116.40902432762088 L 620.0658742970631 116.38572182427816 L 619.6846151395978 116.36069459800854 L 619.3039286682854 116.3339451515138 L 618.9238529514558 116.30547615971629 L 618.5444259963642 116.27529046949147 L 618.1656857453896 116.24339109938322 L 617.7876700722417 116.20978123930193 L 617.4104167781726 116.17446425020565 L 617.0339635881976 116.13744366376382 L 616.6583481473217 116.09872318200426 L 616.2836080167762 116.05830667694286 L 615.9097806702617 116.01619819019646 L 615.5369034902016 115.97240193257863 L 615.1650137640028 115.92692228367865 L 614.7941486803282 115.8797637914235 L 614.4243453253773 115.83093117162312 L 614.0556406791771 115.78042930749876 L 613.6880716118851 115.7282632491948 L 613.3216748801019 115.67443821327356 L 612.9564871231951 115.61895958219381 L 612.5925448596361 115.56183290377238 L 612.229884483348 115.50306389062955 L 611.8685422600663 115.44265841961764 L 611.5085543237121 115.38062253123343 L 611.1499566727792 115.31696242901404 L 610.7927851667337 115.25168447891664 L 610.4370755224286 115.18479520868186 L 610.0828633105319 115.11630130718099 L 609.7301839519697 115.04620962374707 L 609.3790727143839 114.97452716749007 L 609.0295647086057 114.90126110659584 L 608.6816948851443 114.82641876760945 L 608.3354980306924 114.75000763470243 L 607.9910087646466 114.67203534892437 L 607.6482615356467 114.59250970743888 L 607.30729061813 114.51143866274384 L 606.9681301089039 114.42883032187616 L 606.6308139237368 114.3446929456011 L 606.2953757939662 114.25903494758614 L 605.9618492631254 114.17186489355974 L 605.6302676835896 114.08319150045465 L 605.3006642132405 113.99302363553626 L 604.9730718121504 113.90137031551595 L 604.6475232392864 113.80824070564933 L 604.3240510492346 113.71364411881979 L 604.0026875889444 113.61759001460716 L 603.6834649944939 113.52008799834185 L 603.3664151878767 113.42114782014421 L 603.0515698738092 113.32077937394963 L 602.7389605365603 113.21899269651907 L 602.4286184368035 113.11579796643547 L 602.1205746084898 113.01120550308582 L 601.8148598557457 112.90522576562931 L 601.5115047497915 112.79786935195136 L 601.2105396258851 112.68914699760388 L 600.9119945802879 112.57906957473172 L 600.6158994672559 112.4676480909854 L 600.3222838960535 112.35489368842047 L 600.0311772279932 112.24081764238323 L 599.7426085734993 112.1254313603832 L 599.4566067891966 112.00874638095245 L 599.1732004750253 111.89077437249165 L 598.8924179713806 111.77152713210336 L 598.6142873562791 111.65101658441225 L 598.3388364425501 111.52925478037265 L 598.0660927750558 111.40625389606352 L 597.7960836279357 111.28202623147075 L 597.5288360018792 111.15658420925732 L 597.2643766214263 111.02994037352089 L 597.0027319322948 110.90210738853949 L 596.7439280987354 110.77309803750512 L 596.487991000916 110.64292522124536 L 596.234946232333 110.51160195693338 L 595.9848190972523 110.37914137678612 L 595.737634608179 110.24555672675127 L 595.4934174833561 110.11086136518249 L 595.2521921442925 109.97506876150368 L 595.0139827133211 109.83819249486207 L 594.7788130111866 109.70024625277026 L 594.546706554663 109.56124382973746 L 594.3176865542029 109.42119912589021 L 594.0917759116151 109.28012614558213 L 593.8689972177757 109.13803899599372 L 593.6493727503687 108.99495188572155 L 593.4329244716574 108.85087912335736 L 593.2196740262897 108.70583511605736 L 593.0096427391322 108.5598343681014 L 592.8028516131387 108.41289147944262 L 592.5993213272494 108.26502114424743 L 592.3990722343233 108.11623814942611 L 592.2021243591028 107.96655737315416 L 592.0084973962113 107.8159937833845 L 591.8182107081838 107.6645624363506 L 591.6312833235304 107.512278475061 L 591.4477339348339 107.35915712778491 L 591.2675808968802 107.20521370652946 L 591.0908422248231 107.0504636055085 L 590.9175355923821 106.89492229960317 L 590.7476783300765 106.73860534281442 L 590.5812874234907 106.5815283667077 L 590.4183795115769 106.4237070788497 L 590.2589708849903 106.2651572612377 L 590.103077484461 106.10589476872134 L 589.9507148991988 105.94593552741715 L 589.8018983653355 105.78529553311594 L 589.6566427644004 105.62399084968331 L 589.5149626218326 105.46203760745315 L 589.3768721055283 105.29945200161475 L 589.2423850244239 105.1362502905932 L 589.1115148271156 104.97244879442357 L 588.984274600514 104.80806389311903 L 588.8606770685358 104.64311202503268 L 588.740734590831 104.47760968521388 L 588.6244591615477 104.3115734237587 L 588.5118624081317 104.14501984415493 L 588.4029555901648 103.97796560162172 L 588.2977495982376 103.81042740144412 L 588.196254952862 103.64242199730253 L 588.0984818034178 103.47396618959736 L 588.0044399271385 103.305076823769 L 587.9141387281334 103.1357707886133 L 587.827587236447 102.96606501459269 L 587.7447941071566 102.79597647214312 L 587.6657676195059 102.62552216997715 L 587.5905156760779 102.4547191533829 L 587.5190458020041 102.28358450251972 L 587.4513651442127 102.11213533071007 L 587.3874804707127 101.94038878272828 L 587.3273981699184 101.768362033086 L 587.2711242500098 101.59607228431486 L 587.218664338332 101.42353676524615 L 587.1700236808324 101.25077272928802 L 587.1252071415363 101.07779745270005 L 587.0842192020601 100.9046282328658 L 587.0470639611638 100.73128238656292 L 587.0137451343404 100.5577772482316 L 586.9842660534449 100.38413016824109 L 586.9586296663607 100.21035851115465 L 586.9368385367053 100.03647965399321 L 586.9188948435734 99.86251098449759 L 586.9048003813194 99.68846989938976 L 586.8945565593779 99.51437380263317 L 586.8881644021222 99.34024010369247 L 586.8856245487632 99.16608621579239 L 586.8869372532837 98.99192955417662 L 586.8921023844144 98.81778753436619 L 586.9011194256467 98.64367757041796 L 586.9139874752839 98.46961707318323 L 586.9307052465317 98.29562344856669 L 586.9512710676269 98.12171409578578 L 586.9756828820045 97.94790640563087 L 587.0039382485037 97.77421775872614 L 587.036034341611 97.60066552379153 L 587.0719679517441 97.42726705590593 L 587.1117354855718 97.25403969477159 L 587.1553329663739 97.0810007629803 L 587.2027560344386 96.90816756428103 L 587.2539999474986 96.73555738184962 L 587.3090595812055 96.56318747656049 L 587.3679294296417 96.3910750852605 L 587.4306036058712 96.21923741904537 L 587.4970758425288 96.04769166153852 L 587.5673394924464 95.87645496717275 L 587.6413875293173 95.70554445947478 L 587.7192125483995 95.53497722935299 L 587.8008067672561 95.36477033338824 L 587.8861620265332 95.19494079212826 L 587.9752697907759 95.0255055883857 L 588.0681211492821 94.85648166553969 L 588.1647068169933 94.6878859258417 L 588.2650171354232 94.5197352287252 L 588.3690420736236 94.35204638911974 L 588.4767712291873 94.18483617576958 L 588.5881938292887 94.0181213095567 L 588.7032987317604 93.85191846182879 L 588.8220744262081 93.68624425273212 L 588.9445090351616 93.52111524954954 L 589.0705903152616 93.35654796504377 L 589.2003056584856 93.19255885580611 L 589.3336420934071 93.02916432061083 L 589.4705862864937 92.86638069877529 L 589.6111245434405 92.70422426852602 L 589.7552428105386 92.54271124537092 L 589.9029266760815 92.3818577804777 L 590.0541613718058 92.22167995905882 L 590.2089317743678 92.06219379876292 L 590.3672224068564 91.90341524807314 L 590.5290174403401 91.74536018471224 L 590.6943006954505 91.58804441405483 L 590.8630556439997 91.43148366754689 L 591.0352654106335 91.27569360113259 L 591.2109127745189 91.12068979368877 L 591.3899801710658 90.96648774546698 L 591.5724496936836 90.81310287654355 L 591.7583030955723 90.66055052527756 L 591.9475217915465 90.508845946777 L 592.1400868598943 90.3580043113733 L 592.3359790442694 90.2080407031043 L 592.5351787556165 90.05897011820588 L 592.7376660741305 89.91080746361227 L 592.9434207512484 89.76356755546549 L 593.1524222116736 89.61726511763362 L 593.3646495554348 89.47191478023856 L 593.5800815599739 89.32753107819292 L 593.7986966822704 89.18412844974657 L 594.0204730609939 89.04172123504284 L 594.2453885186917 88.90032367468457 L 594.4734205640051 88.75994990830995 L 594.7045463939198 88.6206139731786 L 594.9387428960455 88.48232980276798 L 595.1759866509269 88.34511122537985 L 595.4162539343864 88.20897196275763 L 595.6595207198959 88.07392562871412 L 595.9057626809795 87.93998572777018 L 596.1549551936462 87.80716565380429 L 596.4070733388525 87.67547868871318 L 596.6620919049939 87.54493800108361 L 596.9199853904264 87.41555664487555 L 597.1807280060162 87.2873475581168 L 597.4442936777193 87.16032356160923 L 597.7106560491881 87.0344973576466 L 597.9797884844072 86.90988152874448 L 598.2516640703575 86.78648853638188 L 598.526255619707 86.66433071975524 L 598.8035356735295 86.54342029454442 L 599.0834765040507 86.42376935169116 L 599.366050117421 86.30538985619008 L 599.6512282565143 86.18829364589203 L 599.9389824037545 86.0724924303205 L 600.2292837839666 85.95799778950051 L 600.5221033672544 85.84482117280076 L 600.8174118719038 85.73297389778861 L 601.1151797673103 85.62246714909833 L 601.4153772769325 85.51331197731271 L 601.7179743812698 85.40551929785798 L 602.0229408208635 85.29909988991224 L 602.3302460993242 85.19406439532762 L 602.6398594863798 85.09042331756602 L 602.9517500209499 84.98818702064888 L 603.2658865142408 84.88736572812068 L 603.582237552865 84.78796952202666 L 603.9007715019821 84.6900083419046 L 604.221456508463 84.59349198379087 L 604.5442605040739 84.49843009924086 L 604.8691512086845 84.40483219436382 L 605.1960961334948 84.3127076288722 L 605.5250625842851 84.22206561514581 L 605.8560176646844 84.13291521731048 L 606.1889282794601 84.0452653503317 L 606.5237611378286 83.95912477912314 L 606.8604827567829 83.87450211767012 L 607.1990594644417 83.79140582816828 L 607.5394574034163 83.70984422017732 L 607.8816425341967 83.62982544979005 L 608.2255806385547 83.55135751881686 L 608.5712373229667 83.47444827398543 L 608.9185780220521 83.39910540615617 L 609.2675680020307 83.32533644955306 L 609.6181723641951 83.25314878101032 L 609.9703560484013 83.18254961923462 L 610.3240838365745 83.1135460240833 L 610.6793203562304 83.04614489585839 L 611.0360300840133 82.98035297461655 L 611.3941773492477 82.91617683949505 L 611.7537263375053 82.85362290805395 L 612.114641094187 82.79269743563424 L 612.476885528118 82.73340651473242 L 612.8404234151567 82.67575607439116 L 613.2052184018173 82.61975187960644 L 613.5712340089052 82.56539953075108 L 613.9384336351646 82.51270446301467 L 614.306780560939 82.46167194586008 L 614.6762379518427 82.41230708249647 L 615.0467688624445 82.36461480936907 L 615.4183362399622 82.31859989566543 L 615.7909029279675 82.2742669428386 L 616.1644316701023 82.23162038414688 L 616.5388851138035 82.19066448421063 L 616.9142258140388 82.15140333858571 L 617.290416237051 82.11384087335396 L 617.6674187641112 82.0779808447306 L 618.045195695281 82.04382683868862 L 618.4237092531819 82.01138227060014 L 618.8029215867738 81.98065038489496 L 619.1827947751391 81.951634254736 L 619.5632908312757 81.92433678171216 L 619.9443717058949 81.89876069554792 L 620.325999291227 81.87490855383064 L 620.7081354248314 81.8527827417546 L 621.0907418934131 81.83238547188255 L 621.4737804366442 81.81371878392449 L 621.8572127509896 81.79678454453366 L 622.2410004935372 81.78158444711991 L 622.6251052858328 81.7681200116803 L 623.009488717717 81.75639258464713 L 623.3941123511671 81.74640333875335 L 623.7789377241404 81.73815327291524 L 624.16392635442 81.73164321213248 L 624.5490397434638 81.72687380740575 L 624.934239380254 81.72384553567153 L 625.3194867451477 81.72255869975447 L 625.7047433137295 81.7230134283371 L 626.0899705606637 81.72520967594693 L 626.4751299635465 81.72914722296105 L 626.8601830067586 81.734825675628 L 627.2450911853165 81.74224446610728 L 627.6298160087232 81.75140285252601 L 628.014319004817 81.76229991905319 L 628.3985617236186 81.77493457599125 L 628.7825057411765 81.78930555988501 L 629.1661126634085 81.80541143364806 L 629.5493441299425 81.82325058670645 L 629.9321618179509 81.84282123515973 L 630.3145274459841 81.8641214219594 L 630.6964027777979 81.88714901710448 L 631.0777496261773 81.91190171785466 L 631.4585298567551 81.93837704896052 L 631.8387053918259 81.96657236291098 L 632.2182382141527 81.99648484019815 L 632.5970903707698 82.02811148959924 L 632.975223976777 82.06144914847566 L 633.3526012191289 82.09649448308929 L 633.7291843604158 82.13324398893589 L 634.1049357426374 82.17169399109548 L 634.4798177909686 82.21184064459992 L 634.8537930175168 82.25367993481728 L 635.2268240250711 82.29720767785342 L 635.5988735108417 82.34241952097031 L 635.96990427019 82.3893109430213 L 636.3398792003492 82.43787725490328 L 636.7087613041347 82.48811360002553 L 637.0765136936433 82.5400149547954 L 637.4430995939427 82.59357612912065 L 637.8084823467484 82.6487917669285 L 638.1726254140896 82.70565634670118 L 638.5354923819629 82.76416418202808 L 638.8970469639738 82.82430942217445 L 639.2572530049656 82.88608605266639 L 639.6160744846344 82.94948789589232 L 639.973475521131 83.01450861172076 L 640.3294203746499 83.0811416981343 L 640.6838734510021 83.14938049187985 L 641.0367993051755 83.21921816913488 L 641.3881626448788 83.29064774618986 L 641.7379283340706 83.36366208014663 L 642.0860613964737 83.43825386963262 L 642.432527019072 83.51441565553105 L 642.7772905555918 83.59213982172679 L 643.1203175299668 83.671418595868 L 643.4615736397853 83.75224405014333 L 643.8010247597209 83.83460810207471 L 644.1386369449444 83.91850251532557 L 644.4743764345186 84.0039189005245 L 644.8082096547744 84.09084871610418 L 645.1401032226678 84.17928326915546 L 645.4700239491187 84.26921371629676 L 645.7979388423296 84.36063106455829 L 646.123815111084 84.45352617228141 L 646.4476201680269 84.54788975003277 L 646.7693216329224 84.6437123615332 L 647.088887335892 84.74098442460144 L 647.4062853206317 84.83969621211223 L 647.7214838476076 84.93983785296906 L 648.0344513972296 85.04139933309132 L 648.3451566730038 85.14437049641562 L 648.6535686046611 85.24874104591143 L 648.9596563512657 85.3545005446108 L 649.2633893042978 85.46163841665197 L 649.5647370907154 85.57014394833702 L 649.8636695759908 85.68000628920322 L 650.1601568671247 85.791214453108 L 650.454169315635 85.90375731932768 L 650.7456775205219 86.0176236336694 L 651.0346523312078 86.13280200959663 L 651.3210648504524 86.24928092936774 L 651.6048864372425 86.36704874518784 L 651.8860887096561 86.48609368037347 L 652.1646435476999 86.60640383053033 L 652.4405230961225 86.72796716474365 L 652.713699767199 86.8507715267813 L 652.9841462434899 86.97480463630944 L 653.2518354805728 87.10005409012047 L 653.5167407097473 87.22650736337337 L 653.778835440711 87.35415181084622 L 654.0380934642093 87.48297466820061 L 654.2944888546558 87.61296305325817 L 654.5479959727254 87.74410396728872 L 654.7985894679173 87.87638429631014 L 655.0462442810909 88.00979081239976 L 655.2909356469713 88.14431017501714 L 655.5326390966256 88.27992893233812 L 655.7713304599106 88.41663352259998 L 656.0069858678886 88.55441027545763 L 656.2395817552153 88.69324541335057 L 656.4690948624958 88.83312505288072 L 656.6955022386106 88.9740352062007 L 656.9187812430108 89.1159617824126 L 657.1389095479819 89.25889058897707 L 657.3558651408771 89.40280733313254 L 657.5696263263176 89.54769762332457 L 657.7801717283633 89.69354697064483 L 657.987480292649 89.84034079028017 L 658.1915312884915 89.98806440297092 L 658.3923043109611 90.13670303647895 L 658.5897792829228 90.28624182706474 L 658.783936457044 90.43666582097387 L 658.974756417769 90.5879599759323 L 659.1622200832609 90.7401091626506 L 659.3463087073093 90.8930981663369 L 659.5270038812051 91.0469116882183 L 659.7042875355817 91.20153434707083 L 659.8781419422212 91.35695068075742 L 660.048549715828 91.51314514777422 L 660.2154938157665 91.67010212880471 L 660.3789575477662 91.82780592828158 L 660.5389245655897 91.98624077595628 L 660.6953788726687 92.14539082847608 L 660.848304823703 92.30524017096836 L 660.9976871262248 92.46577281863208 L 661.1435108421283 92.62697271833625 L 661.2857613891636 92.78882375022522 L 661.4244245423943 92.95130972933067 L 661.5594864356207 93.11441440719013 L 661.6909335627661 93.2781214734717 L 661.8187527792273 93.44241455760519 L 661.9429313031893 93.6072772304191 L 662.0634567169029 93.77269300578352 L 662.1803169679274 93.93864534225877 L 662.293500370335 94.1051176447495 L 662.4029956058798 94.27209326616416 L 662.5087917251294 94.43955550907978 L 662.6108781485602 94.60748762741163 L 662.7092446676148 94.77587282808778 L 662.8038814457233 94.94469427272853 L 662.8947790192867 95.11393507933006 L 662.9819282986235 95.28357832395277 L 663.0653205688784 95.45360704241355 L 663.1449474908937 95.62400423198225 L 663.2208011020438 95.79475285308192 L 663.2928738170306 95.96583583099272 L 663.3611584286426 96.13723605755945 L 663.4256481084758 96.30893639290227 L 663.4863364076157 96.48091966713072 L 663.5432172572832 96.65316868206072 L 663.5962849694405 96.82566621293432 L 663.6455342373608 96.99839501014216 L 663.6909601361583 97.17133780094846 L 663.7325581232809 97.34447729121827 L 663.7703240389645 97.51779616714684 L 663.8042541066493 97.691277096991 L 663.8343449333564 97.86490273280235 L 663.8605935100286 98.038655712162 L 663.8829972118298 98.21251865991678 L 663.9015537984086 98.38647418991683 L 663.9162614141219 98.56050490675408 L 663.9271185882202 98.73459340750189 L 663.9341242349954 98.90872228345528 L 663.9372776538883 99.08287412187171 M 663.9374730993634 154.55238463770004 L 663.9355468179805 154.7265401333346 L 663.9297681664584 154.9006782135647 L 663.9201377226575 155.07478146472747 L 663.9066564496139 155.24883247664286 L 663.889325695444 155.42281384435472 L 663.8681471932085 155.59670816987128 L 663.8431230607403 155.77049806390488 L 663.8142558004314 155.94416614761096 L 663.781548298984 156.11769505432588 L 663.745003827121 156.29106743130353 L 663.704626039259 156.46426594145072 L 663.6604189731432 156.63727326506077 L 663.6123870494436 156.8100721015455 L 663.5605350713122 156.98264517116522 L 663.5048682239037 157.1549752167568 L 663.4453920738565 157.32704500545933 L 663.382112568736 157.49883733043725 L 663.3150360364401 157.6703350126013 L 663.2441691845661 157.84152090232612 L 663.16951909974 158.01237788116543 L 663.0910932469081 158.1828888635637 L 663.0088994685905 158.35303679856483 L 662.9229459840964 158.52280467151704 L 662.8332413887026 158.69217550577454 L 662.7397946527939 158.86113236439505 L 662.6426151209661 159.0296583518335 L 662.5417125110913 159.19773661563158 L 662.4370969133465 159.365350348103 L 662.3287787892042 159.53248278801416 L 662.2167689703866 159.69911722226036 L 662.1010786577822 159.86523698753703 L 661.9817194203259 160.0308254720061 L 661.8587031938421 160.19586611695703 L 661.7320422798506 160.36034241846298 L 661.6017493443376 160.5242379290308 L 661.4678374164878 160.68753625924597 L 661.3303198873826 160.85022107941163 L 661.1892105086602 161.0122761211813 L 661.044523391141 161.1736851791858 L 660.8962730034159 161.33443211265396 L 660.7444741704004 161.49450084702625 L 660.5891420718513 161.6538753755627 L 660.4302922408489 161.81253976094328 L 660.2679405622439 161.97047813686163 L 660.1021032710689 162.12767470961177 L 659.932796950915 162.28411375966746 L 659.7600385322728 162.43977964325404 L 659.5838452908405 162.59465679391286 L 659.4042348457953 162.74872972405794 L 659.221225158032 162.90198302652462 L 659.0348345283668 163.05440137611043 L 658.8450815957075 163.20596953110737 L 658.6519853351892 163.35667233482627 L 658.455565056277 163.50649471711233 L 658.255840400835 163.6554216958522 L 658.0528313411626 163.8034383784721 L 657.8465581779964 163.95052996342707 L 657.6370415384807 164.09668174168127 L 657.4243023741051 164.2418790981786 L 657.2083619586086 164.38610751330447 L 656.9892418858528 164.52935256433747 L 656.7669640676626 164.67159992689196 L 656.5415507316343 164.81283537635017 L 656.3130244189139 164.95304478928483 L 656.081407981942 165.09221414487158 L 655.8467245821694 165.23032952629072 L 655.6089976877404 165.36737712211928 L 655.3682510711466 165.50334322771187 L 655.1245088068488 165.6382142465712 L 654.8777952688704 165.77197669170783 L 654.6281351283596 165.9046171869887 L 654.3755533511224 166.0361224684748 L 654.1200751951261 166.16647938574755 L 653.8617262079732 166.29567490322387 L 653.6005322243474 166.42369610145968 L 653.3365193634291 166.55053017844187 L 653.0697140262847 166.67616445086838 L 652.8001428932254 166.8005863554167 L 652.5278329211397 166.92378345000006 L 652.2528113407983 167.04574341501163 L 651.9751056541297 167.1664540545566 L 651.6947436314714 167.28590329767155 L 651.4117533087917 167.40407919953174 L 651.1261629848874 167.52096994264545 L 650.8380012185527 167.63656383803578 L 650.5472968257242 167.75084932640954 L 650.2540788765988 167.86381497931308 L 649.958376692727 167.97544950027532 L 649.6602198440811 168.08574172593714 L 649.3596381460973 168.19468062716788 L 649.0566616566948 168.30225531016822 L 648.7513206732702 168.4084550175595 L 648.4436457296675 168.5132691294595 L 648.1336675931245 168.61668716454435 L 647.8214172611965 168.71869878109672 L 647.5069259586567 168.81929377804 L 647.190225134373 168.91846209595826 L 646.8713464581641 169.01619381810238 L 646.5503218176319 169.1124791713816 L 646.2271833149729 169.20730852734084 L 645.9019632637679 169.3006724031235 L 645.5746941857514 169.39256146241985 L 645.2454088075581 169.48296651640047 L 644.9141400574515 169.57187852463534 L 644.5809210620307 169.6592885959977 L 644.2457851429175 169.7451879895533 L 643.9087658134245 169.82956811543434 L 643.5698967752038 169.91242053569854 L 643.2292119148768 169.99373696517293 L 642.8867453006457 170.0735092722823 L 642.5425311788865 170.15172947986247 L 642.1966039707246 170.22838976595784 L 641.8489982685924 170.30348246460366 L 641.4997488327706 170.37700006659267 L 641.1488905879116 170.4489352202259 L 640.7964586195476 170.519280732048 L 640.4424881705818 170.58802956756634 L 640.0870146377639 170.6551748519547 L 639.7300735681512 170.72070987074056 L 639.371700655553 170.7846280704767 L 639.0119317369621 170.84692305939637 L 638.6508027889705 170.90758860805263 L 638.2883499241719 170.96661864994113 L 637.9246093875511 171.02400728210688 L 637.5596175528582 171.0797487657345 L 637.1934109189729 171.1338375267221 L 636.826026106253 171.1862681562386 L 636.4574998528741 171.2370354112648 L 636.0878690111541 171.28613421511744 L 635.7171705438693 171.3335596579571 L 635.3454415205574 171.379306997279 L 634.9727191138111 171.4233716583873 L 634.5990405955603 171.46574923485267 L 634.2244433333456 171.50643548895275 L 633.8489647865808 171.54542635209603 L 633.4726425028081 171.58271792522868 L 633.0955141139418 171.6183064792245 L 632.717617332507 171.6521884552577 L 632.3389899478665 171.68436046515893 L 631.9596698224434 171.71481929175403 L 631.5796948879342 171.74356188918568 L 631.1991031415157 171.77058538321813 L 630.8179326420453 171.79588707152448 L 630.4362215062554 171.819464423957 L 630.0540079049415 171.84131508280007 L 629.671330059145 171.86143686300602 L 629.2882262363319 171.8798277524136 L 628.904734746565 171.89648591194918 L 628.5208939386738 171.91140967581075 L 628.1367421964193 171.9245975516343 L 627.7523179346554 171.93604822064322 L 627.367659595488 171.9457605377802 L 626.9828056444305 171.9537335318216 L 626.5977945665574 171.9599664054747 L 626.2126648626554 171.96445853545725 L 625.8274550453741 171.96720947256006 L 625.4422036353743 171.96821894169167 L 625.0569491574757 171.96748684190604 L 624.6717301368054 171.96501324641252 L 624.2865850949441 171.9607984025686 L 623.9015525460753 171.95484273185517 L 623.516670993133 171.9471468298343 L 623.1319789239516 171.93771146608984 L 622.7475148074175 171.92653758415025 L 622.363317089622 171.91362630139443 L 621.9794241900167 171.89897890893988 L 621.5958744975717 171.88259687151367 L 621.2127063669366 171.86448182730587 L 620.829958114605 171.8446355878058 L 620.4476680150834 171.8230601376209 L 620.0658742970631 171.79975763427817 L 619.6846151395978 171.77473040800854 L 619.3039286682854 171.7479809615138 L 618.9238529514558 171.71951196971628 L 618.5444259963642 171.68932627949147 L 618.1656857453896 171.65742690938322 L 617.7876700722417 171.62381704930195 L 617.4104167781726 171.58850006020566 L 617.0339635881976 171.55147947376383 L 616.6583481473217 171.51275899200425 L 616.2836080167762 171.47234248694286 L 615.9097806702617 171.43023400019646 L 615.5369034902016 171.38643774257864 L 615.1650137640028 171.34095809367864 L 614.7941486803282 171.2937996014235 L 614.4243453253773 171.24496698162312 L 614.0556406791771 171.19446511749877 L 613.6880716118851 171.1422990591948 L 613.3216748801019 171.08847402327356 L 612.9564871231951 171.0329953921938 L 612.5925448596361 170.9758687137724 L 612.229884483348 170.91709970062956 L 611.8685422600663 170.85669422961763 L 611.5085543237121 170.79465834123343 L 611.1499566727792 170.73099823901404 L 610.7927851667337 170.66572028891665 L 610.4370755224286 170.59883101868186 L 610.0828633105319 170.53033711718098 L 609.7301839519697 170.46024543374708 L 609.3790727143839 170.38856297749007 L 609.0295647086057 170.31529691659586 L 608.6816948851443 170.24045457760946 L 608.3354980306924 170.16404344470243 L 607.9910087646466 170.08607115892437 L 607.6482615356467 170.00654551743887 L 607.30729061813 169.92547447274384 L 606.9681301089039 169.84286613187618 L 606.6308139237368 169.7587287556011 L 606.2953757939662 169.67307075758615 L 605.9618492631254 169.58590070355973 L 605.6302676835896 169.49722731045463 L 605.3006642132405 169.40705944553625 L 604.9730718121504 169.31540612551595 L 604.6475232392864 169.22227651564933 L 604.3240510492346 169.1276799288198 L 604.0026875889444 169.03162582460718 L 603.6834649944939 168.93412380834187 L 603.3664151878767 168.83518363014423 L 603.0515698738092 168.73481518394962 L 602.7389605365603 168.63302850651908 L 602.4286184368035 168.52983377643545 L 602.1205746084898 168.42524131308582 L 601.8148598557457 168.3192615756293 L 601.5115047497915 168.21190516195136 L 601.2105396258851 168.1031828076039 L 600.9119945802879 167.9931053847317 L 600.6158994672559 167.88168390098542 L 600.3222838960535 167.76892949842048 L 600.0311772279932 167.65485345238324 L 599.7426085734993 167.5394671703832 L 599.4566067891966 167.42278219095243 L 599.1732004750253 167.30481018249165 L 598.8924179713806 167.18556294210336 L 598.6142873562791 167.06505239441225 L 598.3388364425501 166.94329059037267 L 598.0660927750558 166.8202897060635 L 597.7960836279357 166.69606204147075 L 597.5288360018792 166.57062001925732 L 597.2643766214263 166.44397618352087 L 597.0027319322948 166.3161431985395 L 596.7439280987354 166.18713384750512 L 596.487991000916 166.05696103124538 L 596.234946232333 165.92563776693336 L 595.9848190972523 165.79317718678612 L 595.737634608179 165.65959253675126 L 595.4934174833561 165.5248971751825 L 595.2521921442925 165.38910457150368 L 595.0139827133211 165.2522283048621 L 594.7788130111866 165.11428206277026 L 594.546706554663 164.97527963973747 L 594.3176865542029 164.8352349358902 L 594.0917759116151 164.69416195558213 L 593.8689972177757 164.55207480599373 L 593.6493727503687 164.40898769572155 L 593.4329244716574 164.26491493335737 L 593.2196740262897 164.11987092605736 L 593.0096427391322 163.9738701781014 L 592.8028516131387 163.8269272894426 L 592.5993213272494 163.67905695424741 L 592.3990722343233 163.5302739594261 L 592.2021243591028 163.38059318315416 L 592.0084973962113 163.2300295933845 L 591.8182107081838 163.0785982463506 L 591.6312833235304 162.926314285061 L 591.4477339348339 162.77319293778493 L 591.2675808968802 162.61924951652946 L 591.0908422248231 162.4644994155085 L 590.9175355923821 162.30895810960317 L 590.7476783300765 162.15264115281443 L 590.5812874234907 161.99556417670772 L 590.4183795115769 161.8377428888497 L 590.2589708849903 161.6791930712377 L 590.103077484461 161.51993057872136 L 589.9507148991988 161.35997133741714 L 589.8018983653355 161.19933134311594 L 589.6566427644004 161.0380266596833 L 589.5149626218326 160.87607341745317 L 589.3768721055283 160.71348781161475 L 589.2423850244239 160.55028610059318 L 589.1115148271156 160.38648460442357 L 588.984274600514 160.22209970311903 L 588.8606770685358 160.05714783503268 L 588.740734590831 159.89164549521388 L 588.6244591615477 159.72560923375872 L 588.5118624081317 159.55905565415492 L 588.4029555901648 159.39200141162172 L 588.2977495982376 159.22446321144412 L 588.196254952862 159.05645780730254 L 588.0984818034178 158.88800199959735 L 588.0044399271385 158.71911263376902 L 587.9141387281334 158.54980659861332 L 587.827587236447 158.3801008245927 L 587.7447941071566 158.21001228214314 L 587.6657676195059 158.03955797997713 L 587.5905156760779 157.8687549633829 L 587.5190458020041 157.69762031251972 L 587.4513651442127 157.52617114071006 L 587.3874804707127 157.3544245927283 L 587.3273981699184 157.182397843086 L 587.2711242500098 157.01010809431486 L 587.218664338332 156.83757257524616 L 587.1700236808324 156.664808539288 L 587.1252071415363 156.49183326270006 L 587.0842192020601 156.3186640428658 L 587.0470639611638 156.14531819656293 L 587.0137451343404 155.97181305823162 L 586.9842660534449 155.7981659782411 L 586.9586296663607 155.62439432115465 L 586.9368385367053 155.4505154639932 L 586.9188948435734 155.2765467944976 L 586.9048003813194 155.10250570938976 L 586.8945565593779 154.92840961263317 L 586.8881644021222 154.75427591369245 L 586.8856245487632 154.5801220257924" stroke-miterlimit="10" stroke-width="4.485898137" stroke-dasharray=""/></g><g><g/><text fill="black" stroke="none" font-family="sans-serif" font-size="11pt" font-style="normal" font-weight="normal" text-decoration="normal" x="576.2639261267618" y="200.28215799900002" text-anchor="start" dominant-baseline="alphabetic" xml:space="preserve">Service Queue</text></g><path fill="none" stroke="none"/><g><path fill="white" stroke="black" paint-order="fill stroke markers" d=" M 745.6960120335548 136.951831359 L 916.7186722387189 136.951831359 L 916.7186722387189 208.19844882900003 L 745.6960120335548 208.19844882900003 L 745.6960120335548 136.951831359 Z" stroke-miterlimit="10" stroke-width="4.222021776" stroke-dasharray=""/></g><g><g/><text fill="black" stroke="none" font-family="sans-serif" font-size="11pt" font-style="normal" font-weight="normal" text-decoration="normal" x="774.3265972020548" y="181.81081272900002" text-anchor="start" dominant-baseline="alphabetic" xml:space="preserve">Service Endpoint</text></g></g><g><path fill="blue" stroke="black" paint-order="fill stroke markers" d=" M 121.86014322515626 366.524265429 L 148.24777932515627 366.524265429 L 148.24777932515627 593.4579358889999 L 121.86014322515626 593.4579358889999 L 121.86014322515626 366.524265429" stroke-miterlimit="10" stroke-width="2.1989696750000003" stroke-dasharray=""/><path fill="green" stroke="black" paint-order="fill stroke markers" d=" M 321.9677141985938 366.524265429 L 348.3553502985938 366.524265429 L 348.3553502985938 593.4579358889999 L 321.9677141985938 593.4579358889999 L 321.9677141985938 366.524265429" stroke-miterlimit="10" stroke-width="2.1989696750000003" stroke-dasharray=""/><path fill="blue" stroke="black" paint-order="fill stroke markers" d=" M 121.86014322515626 778.171388589 L 148.24777932515627 778.171388589 L 148.24777932515627 1305.924110589 L 121.86014322515626 1305.924110589 L 121.86014322515626 778.171388589" stroke-miterlimit="10" stroke-width="2.1989696750000003" stroke-dasharray=""/><path fill="green" stroke="black" paint-order="fill stroke markers" d=" M 818.0135240861368 852.056769669 L 844.4011601861368 852.056769669 L 844.4011601861368 1078.990440129 L 818.0135240861368 1078.990440129 L 818.0135240861368 852.056769669" stroke-miterlimit="10" stroke-width="2.1989696750000003" stroke-dasharray=""/><g><g><rect fill="white" stroke="none" x="184.88268697919926" y="332.22033849900004" width="100.45011956535156" height="34.30392693"/></g><text fill="black" stroke="none" font-family="sans-serif" font-size="11pt" font-style="normal" font-weight="normal" text-decoration="normal" x="188.84083239419925" y="355.96921098900003" text-anchor="start" dominant-baseline="alphabetic" xml:space="preserve">Send Request</text></g><g><path fill="none" stroke="black" paint-order="fill stroke markers" d=" M 148.24777932515627 366.524265429 L 300.2418938095938 366.524265429" stroke-miterlimit="10" stroke-width="2.1989696750000003" stroke-dasharray=""/><g transform="translate(321.9677141985938,366.524265429) translate(-321.9677141985938,-366.524265429)"><path fill="black" stroke="none" paint-order="stroke fill markers" d=" M 299.9780174485938 355.529417054 L 321.9677141985938 366.524265429 L 299.9780174485938 377.519113804 Z"/></g></g><path fill="white" stroke="black" paint-order="fill stroke markers" d=" M 258.1091233858399 406.1057195789999 L 388.4650686213477 406.1057195789999 L 412.2139411113477 429.8545920689999 L 412.2139411113477 519.5725548089999 L 258.1091233858399 519.5725548089999 L 258.1091233858399 406.1057195789999 M 388.4650686213477 406.1057195789999 L 388.4650686213477 429.8545920689999 L 412.2139411113477 429.8545920689999" stroke-miterlimit="10" stroke-width="2.1989696750000003" stroke-dasharray=""/><g><text fill="black" stroke="none" font-family="sans-serif" font-size="11pt" font-style="normal" font-weight="normal" text-decoration="normal" x="295.0518139258399" y="443.0484101189999" text-anchor="start" dominant-baseline="alphabetic" xml:space="preserve">Connection</text><text fill="black" stroke="none" font-family="sans-serif" font-size="11pt" font-style="normal" font-weight="normal" text-decoration="normal" x="295.0518139258399" y="469.43604621899993" text-anchor="start" dominant-baseline="alphabetic" xml:space="preserve">used for the</text><text fill="black" stroke="none" font-family="sans-serif" font-size="11pt" font-style="normal" font-weight="normal" text-decoration="normal" x="295.0518139258399" y="495.82368231899994" text-anchor="start" dominant-baseline="alphabetic" xml:space="preserve">response</text></g><g><g><rect fill="white" stroke="none" x="179.4731487101563" y="559.154008959" width="111.2691961034375" height="34.30392693"/></g><text fill="black" stroke="none" font-family="sans-serif" font-size="11pt" font-style="normal" font-weight="normal" text-decoration="normal" x="183.43129412515628" y="582.902881449" text-anchor="start" dominant-baseline="alphabetic" xml:space="preserve">Send Response</text></g><g><path fill="none" stroke="black" paint-order="fill stroke markers" d=" M 321.9677141985938 593.4579358889999 L 169.97359971415628 593.4579358889999" stroke-miterlimit="10" stroke-width="2.1989696750000003" stroke-dasharray=""/><g transform="translate(148.24777932515627,593.4579358889999) translate(-148.24777932515627,-593.4579358889999)"><path fill="black" stroke="none" paint-order="stroke fill markers" d=" M 170.23747607515628 582.463087514 L 148.24777932515627 593.4579358889999 L 170.23747607515628 604.4527842639999 Z"/></g></g><g><g><rect fill="white" stroke="none" x="336.604592076584" y="743.867461659" width="100.45011956535156" height="34.30392693"/></g><text fill="black" stroke="none" font-family="sans-serif" font-size="11pt" font-style="normal" font-weight="normal" text-decoration="normal" x="340.562737491584" y="767.6163341490001" text-anchor="start" dominant-baseline="alphabetic" xml:space="preserve">Send Request</text></g><g><path fill="none" stroke="black" paint-order="fill stroke markers" d=" M 148.24777932515627 778.171388589 L 603.6857040043634 778.171388589" stroke-miterlimit="10" stroke-width="2.1989696750000003" stroke-dasharray="10.555054440000001"/><g transform="translate(625.4115243933634,778.171388589) translate(-625.4115243933634,-778.171388589)"><path fill="black" stroke="none" paint-order="stroke fill markers" d=" M 603.4218276433634 767.176540214 L 625.4115243933634 778.171388589 L 603.4218276433634 789.166236964 Z"/></g></g><g><g><rect fill="white" stroke="none" x="656.6368937783634" y="817.752842739" width="130.15126092277345" height="34.30392693"/></g><text fill="black" stroke="none" font-family="sans-serif" font-size="11pt" font-style="normal" font-weight="normal" text-decoration="normal" x="660.5950391933634" y="841.5017152290001" text-anchor="start" dominant-baseline="alphabetic" xml:space="preserve">Consume Request</text></g><g><path fill="none" stroke="black" paint-order="fill stroke markers" d=" M 625.4115243933634 852.056769669 L 796.2877036971369 852.056769669" stroke-miterlimit="10" stroke-width="2.1989696750000003" stroke-dasharray="10.555054440000001"/><g transform="translate(818.0135240861368,852.056769669) translate(-818.0135240861368,-852.056769669)"><path fill="black" stroke="none" paint-order="stroke fill markers" d=" M 796.0238273361368 841.0619212940001 L 818.0135240861368 852.056769669 L 796.0238273361368 863.051618044 Z"/></g></g><path fill="white" stroke="black" paint-order="fill stroke markers" d=" M 733.9974549408633 891.6382238189999 L 904.6683568414102 891.6382238189999 L 928.4172293314102 915.387096309 L 928.4172293314102 1005.1050590489999 L 733.9974549408633 1005.1050590489999 L 733.9974549408633 891.6382238189999 M 904.6683568414102 891.6382238189999 L 904.6683568414102 915.387096309 L 928.4172293314102 915.387096309" stroke-miterlimit="10" stroke-width="2.1989696750000003" stroke-dasharray=""/><g><text fill="black" stroke="none" font-family="sans-serif" font-size="11pt" font-style="normal" font-weight="normal" text-decoration="normal" x="770.9401454808634" y="928.580914359" text-anchor="start" dominant-baseline="alphabetic" xml:space="preserve">ResponseAddress</text><text fill="black" stroke="none" font-family="sans-serif" font-size="11pt" font-style="normal" font-weight="normal" text-decoration="normal" x="770.9401454808634" y="954.968550459" text-anchor="start" dominant-baseline="alphabetic" xml:space="preserve">header used to</text><text fill="black" stroke="none" font-family="sans-serif" font-size="11pt" font-style="normal" font-weight="normal" text-decoration="normal" x="770.9401454808634" y="981.356186559" text-anchor="start" dominant-baseline="alphabetic" xml:space="preserve">deliver response</text></g><g><g><rect fill="white" stroke="none" x="600.1088359380313" y="1044.686513199" width="111.2691961034375" height="34.30392693"/></g><text fill="black" stroke="none" font-family="sans-serif" font-size="11pt" font-style="normal" font-weight="normal" text-decoration="normal" x="604.0669813530313" y="1068.435385689" text-anchor="start" dominant-baseline="alphabetic" xml:space="preserve">Send Response</text></g><g><path fill="none" stroke="black" paint-order="fill stroke markers" d=" M 818.0135240861368 1078.990440129 L 515.1991642823633 1078.990440129" stroke-miterlimit="10" stroke-width="2.1989696750000003" stroke-dasharray="10.555054440000001"/><g transform="translate(493.47334389336334,1078.990440129) translate(-493.47334389336334,-1078.990440129)"><path fill="black" stroke="none" paint-order="stroke fill markers" d=" M 515.4630406433633 1067.995591754 L 493.47334389336334 1078.990440129 L 515.4630406433633 1089.985288504 Z"/></g></g><g><g><rect fill="white" stroke="none" x="250.3753928788301" y="1118.5718942790002" width="140.97033746085938" height="34.30392693"/></g><text fill="black" stroke="none" font-family="sans-serif" font-size="11pt" font-style="normal" font-weight="normal" text-decoration="normal" x="254.3335382938301" y="1142.320766769" text-anchor="start" dominant-baseline="alphabetic" xml:space="preserve">Consume Response</text></g><g><path fill="none" stroke="black" paint-order="fill stroke markers" d=" M 493.47334389336334 1152.8758212090002 L 169.97359971415628 1152.8758212090002" stroke-miterlimit="10" stroke-width="2.1989696750000003" stroke-dasharray="10.555054440000001"/><g transform="translate(148.24777932515627,1152.8758212090002) translate(-148.24777932515627,-1152.8758212090002)"><path fill="black" stroke="none" paint-order="stroke fill markers" d=" M 170.23747607515628 1141.8809728340002 L 148.24777932515627 1152.8758212090002 L 170.23747607515628 1163.870669584 Z"/></g></g><path fill="white" stroke="black" paint-order="fill stroke markers" d=" M 52.77527220000002 1192.457275359 L 193.58377786031252 1192.457275359 L 217.33265035031252 1216.206147849 L 217.33265035031252 1305.924110589 L 52.77527220000002 1305.924110589 L 52.77527220000002 1192.457275359 M 193.58377786031252 1192.457275359 L 193.58377786031252 1216.206147849 L 217.33265035031252 1216.206147849" stroke-miterlimit="10" stroke-width="2.1989696750000003" stroke-dasharray=""/><g><text fill="black" stroke="none" font-family="sans-serif" font-size="11pt" font-style="normal" font-weight="normal" text-decoration="normal" x="89.71796274000002" y="1229.399965899" text-anchor="start" dominant-baseline="alphabetic" xml:space="preserve">RequestId</text><text fill="black" stroke="none" font-family="sans-serif" font-size="11pt" font-style="normal" font-weight="normal" text-decoration="normal" x="89.71796274000002" y="1255.7876019990001" text-anchor="start" dominant-baseline="alphabetic" xml:space="preserve">correlates to</text><text fill="black" stroke="none" font-family="sans-serif" font-size="11pt" font-style="normal" font-weight="normal" text-decoration="normal" x="89.71796274000002" y="1282.1752380990001" text-anchor="start" dominant-baseline="alphabetic" xml:space="preserve">request client</text></g><g><g/><path fill="none" stroke="black" paint-order="fill stroke markers" d=" M 29.503416875156265 260.97372102900005 L 427.5182585985938 260.97372102900005 L 427.5182585985938 633.039390039 L 29.503416875156265 633.039390039 L 29.503416875156265 260.97372102900005 Z" stroke-miterlimit="10" stroke-width="3.7696623000000002" stroke-dasharray=""/><path fill="white" stroke="black" paint-order="fill stroke markers" d=" M 29.503416875156265 260.97372102900005 L 29.503416875156265 292.638884349 L 235.2611719853125 292.638884349 L 251.0937536453125 276.80630268900006 L 251.0937536453125 260.97372102900005 L 29.503416875156265 260.97372102900005" stroke-miterlimit="10" stroke-width="3.7696623000000002" stroke-dasharray=""/><text fill="black" stroke="none" font-family="sans-serif" font-size="8.8pt" font-style="normal" font-weight="bold" text-decoration="normal" x="55.89105297515627" y="282.08382990900003" text-anchor="start" dominant-baseline="alphabetic" xml:space="preserve">await httpClient.PostAsync</text></g><g><g/><path fill="none" stroke="black" paint-order="fill stroke markers" d=" M 26.387636100000012 672.620844189 L 941.6110473814103 672.620844189 L 941.6110473814103 1345.505564739 L 26.387636100000012 1345.505564739 L 26.387636100000012 672.620844189 Z" stroke-miterlimit="10" stroke-width="3.7696623000000002" stroke-dasharray=""/><path fill="white" stroke="black" paint-order="fill stroke markers" d=" M 26.387636100000012 672.620844189 L 26.387636100000012 704.286007509 L 269.29424069746096 704.286007509 L 285.126822357461 688.4534258489999 L 285.126822357461 672.620844189 L 26.387636100000012 672.620844189" stroke-miterlimit="10" stroke-width="3.7696623000000002" stroke-dasharray=""/><text fill="black" stroke="none" font-family="sans-serif" font-size="8.8pt" font-style="normal" font-weight="bold" text-decoration="normal" x="52.77527220000002" y="693.730953069" text-anchor="start" dominant-baseline="alphabetic" xml:space="preserve">await requestClient.GetResponse</text></g></g><g/><g/><g/><g/><g/></g></svg>